<svg width="80" height="80" viewBox="0 0 80 80" fill="none" xmlns="http://www.w3.org/2000/svg">
<rect width="80" height="80" rx="10" fill="white"/>
<g clip-path="url(#clip0_37284_7874)">
<path d="M30.4967 15.9954H55.3706C55.5718 16.0401 55.6723 16.1406 55.6723 16.2971V29.9744C55.6723 30.1755 55.5718 30.2761 55.3706 30.2761H35.1564V49.6187H55.3706C55.5718 49.6411 55.6723 49.7416 55.6723 49.9204V63.4301C55.6723 63.6312 55.5718 63.7318 55.3706 63.7318H30.4967C26.988 60.3572 23.8257 57.206 21.0098 54.2784V25.4488C24.4067 21.9624 27.5691 18.8113 30.4967 15.9954Z" fill="#046A38"/>
<path d="M-8.18359 37.1187C-8.18359 37.1187 3.56293 45.3601 27.95 37.5662C49.6523 30.6304 63.5848 33.0632 63.5848 33.0632C63.5848 33.0632 62.1994 34.0214 61.5103 34.7695C60.8211 35.5177 60.0556 36.8949 60.0556 36.8949C60.0556 36.8949 53.4558 33.539 27.167 40.0273C1.54975 47.5226 -8.18315 37.1188 -8.18315 37.1188L-8.18359 37.1187Z" fill="#D8052E"/>
<path d="M10.6213 44.9482C10.6213 44.9482 22.2498 44.9483 34.1133 40.6978C47.0844 36.559 59.3507 38.6539 59.3507 38.6539C59.3507 38.6539 59.0553 39.3481 58.9541 40.3602C58.8423 41.4789 58.9541 42.0382 58.9541 42.0382C58.9541 42.0382 49.9886 39.6918 36.9001 42.2647C17.2114 47.2988 10.6217 44.9483 10.6217 44.9483L10.6213 44.9482Z" fill="#D8052E"/>
<path d="M34.3269 45.1735C34.3269 45.1735 41.1512 43.4954 47.6389 43.4955C54.1275 43.2717 59.3523 44.4731 59.3523 44.4731C59.3523 44.4731 59.6762 45.7405 60.1702 46.6297C60.7295 47.6365 61.5126 48.4196 61.5126 48.4196C61.5126 48.4196 56.0286 45.8358 47.6389 45.2852C40.8155 44.8374 34.3274 45.1736 34.3274 45.1736L34.3269 45.1735Z" fill="#D8052E"/>
<path d="M68.4827 41.1681C68.4827 45.2088 68.4827 48.9873 68.4827 50.0172C68.4827 50.1701 68.3589 50.2928 68.2061 50.2839C64.8047 50.0873 60.7266 46.3215 60.7266 41.7048C60.7266 37.0881 64.8047 33.3224 68.2061 33.1257C68.3589 33.1169 68.4827 33.2396 68.4827 33.3926C68.4827 34.2778 68.4827 37.2278 68.4827 41.1681Z" fill="#D8052E"/>
<path d="M70.4235 41.1681C70.4235 45.2088 70.4235 48.9873 70.4235 50.0172C70.4235 50.1701 70.5474 50.2928 70.7001 50.2839C74.1015 50.0873 78.1797 46.3215 78.1797 41.7048C78.1797 37.0881 74.1015 33.3224 70.7001 33.1257C70.5474 33.1169 70.4235 33.2396 70.4235 33.3926C70.4235 34.2778 70.4235 37.2278 70.4235 41.1681Z" fill="#D8052E"/>
<rect x="69.0371" y="33.1177" width="0.831015" height="17.1743" rx="0.415508" fill="white"/>
<rect x="70.9746" y="48.0078" width="0.831015" height="1.4532" rx="0.415508" fill="white"/>
<rect x="70.9746" y="45.9595" width="0.831015" height="1.4532" rx="0.415508" fill="white"/>
<rect x="70.9746" y="43.9116" width="0.831015" height="1.4532" rx="0.415508" fill="white"/>
<rect x="70.9746" y="41.8633" width="0.831015" height="1.4532" rx="0.415508" fill="white"/>
<rect x="70.9746" y="39.8154" width="0.831015" height="1.4532" rx="0.415508" fill="white"/>
<rect x="70.9746" y="37.7676" width="0.831015" height="1.4532" rx="0.415508" fill="white"/>
<rect x="70.9746" y="35.7192" width="0.831015" height="1.4532" rx="0.415508" fill="white"/>
<rect x="70.9746" y="33.6714" width="0.831015" height="1.4532" rx="0.415508" fill="white"/>
<rect x="67.0977" y="48.0078" width="0.831015" height="1.4532" rx="0.415508" fill="white"/>
<rect x="67.0977" y="45.9595" width="0.831015" height="1.4532" rx="0.415508" fill="white"/>
<rect x="67.0977" y="43.9116" width="0.831015" height="1.4532" rx="0.415508" fill="white"/>
<rect x="67.0977" y="41.8633" width="0.831015" height="1.4532" rx="0.415508" fill="white"/>
<rect x="67.0977" y="39.8154" width="0.831015" height="1.4532" rx="0.415508" fill="white"/>
<rect x="67.0977" y="37.7676" width="0.831015" height="1.4532" rx="0.415508" fill="white"/>
<rect x="67.0977" y="35.7192" width="0.831015" height="1.4532" rx="0.415508" fill="white"/>
<rect x="67.0977" y="33.6714" width="0.831015" height="1.4532" rx="0.415508" fill="white"/>
</g>
<defs>
<clipPath id="clip0_37284_7874">
<rect width="78" height="78" fill="white" transform="translate(1 1)"/>
</clipPath>
</defs>
</svg>
