<svg width="206" height="97" viewBox="0 0 206 97" fill="none" xmlns="http://www.w3.org/2000/svg">
<g opacity="0.1">
<path d="M97.2795 94.986C101.178 83.8401 95.6046 74.0159 85.2595 73.7272C76.1407 73.4727 66.4611 80.7865 62.9648 90.6035C59.1641 101.275 64.0468 110.9 73.7374 111.912C83.1553 112.895 93.6489 105.365 97.2795 94.986Z" fill="url(#paint0_linear_363_6280)"/>
<path d="M85.6789 73.9588L85.2025 73.9388C76.325 73.6911 66.9106 80.6963 63.3206 90.1753L63.1542 90.6288C59.396 101.182 64.2246 110.699 73.8084 111.7L74.2449 111.74C83.2984 112.429 93.2347 105.298 96.9165 95.4418L97.0897 94.9622C100.885 84.1127 95.6037 74.5283 85.6789 73.9588Z" stroke="white" stroke-opacity="0.06" stroke-width="0.415253"/>
<g filter="url(#filter0_ii_363_6280)">
<rect width="36.4089" height="37.1612" rx="18.2044" transform="matrix(-0.920161 -0.0939837 -0.33708 1.01531 101.006 73.804)" fill="#F8E173"/>
</g>
<g filter="url(#filter1_i_363_6280)">
<rect x="-0.74054" y="0.542677" width="31.7873" height="32.4685" rx="15.8936" transform="matrix(-0.920161 -0.0939837 -0.33708 1.01531 97.4018 75.4887)" stroke="#CEAC4D" stroke-width="1.17804"/>
</g>
</g>
<g opacity="0.1">
<path d="M109.713 109.07C106.353 99.465 111.156 90.9993 120.07 90.7505C127.928 90.5312 136.269 96.8337 139.282 105.293C142.557 114.489 138.35 122.783 129.999 123.655C121.884 124.502 112.841 118.014 109.713 109.07Z" fill="url(#paint1_linear_363_6280)"/>
<path d="M119.71 90.9507L120.12 90.9333C127.77 90.72 135.882 96.7563 138.975 104.924L139.119 105.315C142.358 114.408 138.197 122.61 129.938 123.473L129.562 123.507C121.76 124.101 113.198 117.956 110.025 109.462L109.876 109.05C106.606 99.7 111.157 91.4411 119.71 90.9507Z" stroke="white" stroke-opacity="0.06" stroke-width="0.357832"/>
<g filter="url(#filter2_ii_363_6280)">
<rect width="31.3742" height="32.0225" rx="15.6871" transform="matrix(0.920161 -0.0939837 0.33708 1.01531 106.502 90.8165)" fill="#F8E173"/>
</g>
<g filter="url(#filter3_i_363_6280)">
<rect x="0.638138" y="0.467636" width="27.3917" height="27.9787" rx="13.6959" transform="matrix(0.920161 -0.0939837 0.33708 1.01531 108.432 92.3888)" stroke="#CEAC4D" stroke-width="1.01514"/>
</g>
</g>
<path d="M64.1251 63.212C50.3256 47.9874 52.6046 28.4646 68.9912 20.994C83.4352 14.409 103.905 19.5753 116.159 32.9424C129.481 47.4733 128.174 66.2078 113.326 74.3946C98.8966 82.3511 76.9756 77.3895 64.1251 63.212Z" fill="url(#paint2_linear_363_6280)"/>
<path d="M68.4771 21.6496L69.2261 21.2946C83.2877 14.8839 103.123 19.7351 115.298 32.4966L115.873 33.1109C129.046 47.4803 127.754 66.0076 113.07 74.1042L112.396 74.4638C98.3507 81.7005 77.5937 77.0015 65.0154 63.6965L64.4138 63.046C50.9808 48.2257 52.9536 29.2852 68.4771 21.6496Z" stroke="white" stroke-opacity="0.06" stroke-width="0.722607"/>
<g filter="url(#filter4_ii_363_6280)">
<rect width="63.3572" height="64.6664" rx="31.6786" transform="matrix(0.810994 -0.444768 0.705726 0.804003 43.8047 31.7822)" fill="#F8E173"/>
</g>
<g filter="url(#filter5_i_363_6280)">
<rect x="1.55462" y="0.368212" width="55.3149" height="56.5003" rx="27.6575" transform="matrix(0.810994 -0.444768 0.705726 0.804003 48.8211 33.7685)" stroke="#CEAC4D" stroke-width="2.04998"/>
</g>
<g opacity="0.3">
<path d="M145.075 91.7478C131.292 86.2006 126.611 72.7814 134.912 62.7486C142.229 53.9051 157.176 50.8036 169.367 55.6304C182.62 60.8773 187.684 73.4768 180.61 83.4897C173.736 93.2207 157.91 96.9136 145.075 91.7478Z" fill="url(#paint3_linear_363_6280)"/>
<path d="M134.785 63.3375L135.16 62.87C142.284 54.2607 156.718 51.1539 168.667 55.6118L169.234 55.8302C182.339 61.0189 187.348 73.479 180.353 83.3815L180.028 83.8284C173.176 92.9702 158.189 96.466 145.806 91.7817L145.21 91.5488C131.793 86.1489 127.097 73.2052 134.785 63.3375Z" stroke="white" stroke-opacity="0.06" stroke-width="0.52249"/>
<g filter="url(#filter6_ii_363_6280)">
<rect width="45.8113" height="46.7579" rx="22.9056" transform="matrix(0.535423 -0.754223 0.985942 0.415197 121.931 77.7173)" fill="#F8E173"/>
</g>
<g filter="url(#filter7_i_363_6280)">
<rect x="1.12753" y="-0.251263" width="39.9962" height="40.8533" rx="19.9981" transform="matrix(0.535423 -0.754223 0.985942 0.415197 126.332 77.6424)" stroke="#CEAC4D" stroke-width="1.48226"/>
</g>
</g>
<g opacity="0.3">
<path d="M42.4896 73.4453C46.2604 62.6653 40.8697 53.1636 30.8641 52.8843C22.0447 52.6382 12.6828 59.7119 9.3012 69.2067C5.62522 79.528 10.3477 88.8365 19.7203 89.8154C28.829 90.7668 38.9781 83.4839 42.4896 73.4453Z" fill="url(#paint4_linear_363_6280)"/>
<path d="M31.2694 53.1082L30.8085 53.0888C22.2225 52.8494 13.1171 59.625 9.64514 68.7928L9.48401 69.2304C5.84887 79.4371 10.5194 88.6431 19.7887 89.6113L20.2118 89.6494C28.9679 90.3154 38.5772 83.4189 42.1381 73.886L42.306 73.4224C45.9765 62.9288 40.8687 53.6587 31.2694 53.1082Z" stroke="white" stroke-opacity="0.06" stroke-width="0.401623"/>
<g filter="url(#filter8_ii_363_6280)">
<rect width="35.2138" height="35.9414" rx="17.6069" transform="matrix(-0.920161 -0.0939837 -0.33708 1.01531 46.0935 52.958)" fill="#F8E173"/>
</g>
<g filter="url(#filter9_i_363_6280)">
<rect x="-0.716233" y="0.524865" width="30.7439" height="31.4027" rx="15.372" transform="matrix(-0.920161 -0.0939837 -0.33708 1.01531 42.608 54.5876)" stroke="#CEAC4D" stroke-width="1.13937"/>
</g>
</g>
<defs>
<filter id="filter0_ii_363_6280" x="60.0208" y="72.0128" width="35.9424" height="37.8905" filterUnits="userSpaceOnUse" color-interpolation-filters="sRGB">
<feFlood flood-opacity="0" result="BackgroundImageFix"/>
<feBlend mode="normal" in="SourceGraphic" in2="BackgroundImageFix" result="shape"/>
<feColorMatrix in="SourceAlpha" type="matrix" values="0 0 0 0 0 0 0 0 0 0 0 0 0 0 0 0 0 0 127 0" result="hardAlpha"/>
<feOffset dx="0.621821"/>
<feComposite in2="hardAlpha" operator="arithmetic" k2="-1" k3="1"/>
<feColorMatrix type="matrix" values="0 0 0 0 0.807843 0 0 0 0 0.67451 0 0 0 0 0.301961 0 0 0 1 0"/>
<feBlend mode="normal" in2="shape" result="effect1_innerShadow_363_6280"/>
<feColorMatrix in="SourceAlpha" type="matrix" values="0 0 0 0 0 0 0 0 0 0 0 0 0 0 0 0 0 0 127 0" result="hardAlpha"/>
<feOffset dy="-0.370415"/>
<feComposite in2="hardAlpha" operator="arithmetic" k2="-1" k3="1"/>
<feColorMatrix type="matrix" values="0 0 0 0 0.807843 0 0 0 0 0.67451 0 0 0 0 0.301961 0 0 0 1 0"/>
<feBlend mode="normal" in2="effect1_innerShadow_363_6280" result="effect2_innerShadow_363_6280"/>
</filter>
<filter id="filter1_i_363_6280" x="61.5317" y="73.9449" width="32.5432" height="34.3068" filterUnits="userSpaceOnUse" color-interpolation-filters="sRGB">
<feFlood flood-opacity="0" result="BackgroundImageFix"/>
<feBlend mode="normal" in="SourceGraphic" in2="BackgroundImageFix" result="shape"/>
<feColorMatrix in="SourceAlpha" type="matrix" values="0 0 0 0 0 0 0 0 0 0 0 0 0 0 0 0 0 0 127 0" result="hardAlpha"/>
<feOffset dy="-0.370414"/>
<feComposite in2="hardAlpha" operator="arithmetic" k2="-1" k3="1"/>
<feColorMatrix type="matrix" values="0 0 0 0 0.705727 0 0 0 0 0.570925 0 0 0 0 0.194273 0 0 0 1 0"/>
<feBlend mode="normal" in2="shape" result="effect1_innerShadow_363_6280"/>
</filter>
<filter id="filter2_ii_363_6280" x="110.847" y="89.273" width="30.9724" height="32.6509" filterUnits="userSpaceOnUse" color-interpolation-filters="sRGB">
<feFlood flood-opacity="0" result="BackgroundImageFix"/>
<feBlend mode="normal" in="SourceGraphic" in2="BackgroundImageFix" result="shape"/>
<feColorMatrix in="SourceAlpha" type="matrix" values="0 0 0 0 0 0 0 0 0 0 0 0 0 0 0 0 0 0 127 0" result="hardAlpha"/>
<feOffset dx="0.535835"/>
<feComposite in2="hardAlpha" operator="arithmetic" k2="-1" k3="1"/>
<feColorMatrix type="matrix" values="0 0 0 0 0.807843 0 0 0 0 0.67451 0 0 0 0 0.301961 0 0 0 1 0"/>
<feBlend mode="normal" in2="shape" result="effect1_innerShadow_363_6280"/>
<feColorMatrix in="SourceAlpha" type="matrix" values="0 0 0 0 0 0 0 0 0 0 0 0 0 0 0 0 0 0 127 0" result="hardAlpha"/>
<feOffset dy="-0.319193"/>
<feComposite in2="hardAlpha" operator="arithmetic" k2="-1" k3="1"/>
<feColorMatrix type="matrix" values="0 0 0 0 0.807843 0 0 0 0 0.67451 0 0 0 0 0.301961 0 0 0 1 0"/>
<feBlend mode="normal" in2="effect1_innerShadow_363_6280" result="effect2_innerShadow_363_6280"/>
</filter>
<filter id="filter3_i_363_6280" x="112.474" y="90.9385" width="28.043" height="29.5629" filterUnits="userSpaceOnUse" color-interpolation-filters="sRGB">
<feFlood flood-opacity="0" result="BackgroundImageFix"/>
<feBlend mode="normal" in="SourceGraphic" in2="BackgroundImageFix" result="shape"/>
<feColorMatrix in="SourceAlpha" type="matrix" values="0 0 0 0 0 0 0 0 0 0 0 0 0 0 0 0 0 0 127 0" result="hardAlpha"/>
<feOffset dy="-0.319193"/>
<feComposite in2="hardAlpha" operator="arithmetic" k2="-1" k3="1"/>
<feColorMatrix type="matrix" values="0 0 0 0 0.705727 0 0 0 0 0.570925 0 0 0 0 0.194273 0 0 0 1 0"/>
<feBlend mode="normal" in2="shape" result="effect1_innerShadow_363_6280"/>
</filter>
<filter id="filter4_ii_363_6280" x="57.7952" y="14.0499" width="69.0381" height="59.2775" filterUnits="userSpaceOnUse" color-interpolation-filters="sRGB">
<feFlood flood-opacity="0" result="BackgroundImageFix"/>
<feBlend mode="normal" in="SourceGraphic" in2="BackgroundImageFix" result="shape"/>
<feColorMatrix in="SourceAlpha" type="matrix" values="0 0 0 0 0 0 0 0 0 0 0 0 0 0 0 0 0 0 127 0" result="hardAlpha"/>
<feOffset dx="1.08207"/>
<feComposite in2="hardAlpha" operator="arithmetic" k2="-1" k3="1"/>
<feColorMatrix type="matrix" values="0 0 0 0 0.807843 0 0 0 0 0.67451 0 0 0 0 0.301961 0 0 0 1 0"/>
<feBlend mode="normal" in2="shape" result="effect1_innerShadow_363_6280"/>
<feColorMatrix in="SourceAlpha" type="matrix" values="0 0 0 0 0 0 0 0 0 0 0 0 0 0 0 0 0 0 127 0" result="hardAlpha"/>
<feOffset dy="-0.64458"/>
<feComposite in2="hardAlpha" operator="arithmetic" k2="-1" k3="1"/>
<feColorMatrix type="matrix" values="0 0 0 0 0.807843 0 0 0 0 0.67451 0 0 0 0 0.301961 0 0 0 1 0"/>
<feBlend mode="normal" in2="effect1_innerShadow_363_6280" result="effect2_innerShadow_363_6280"/>
</filter>
<filter id="filter5_i_363_6280" x="61.4543" y="16.9496" width="62.5085" height="53.671" filterUnits="userSpaceOnUse" color-interpolation-filters="sRGB">
<feFlood flood-opacity="0" result="BackgroundImageFix"/>
<feBlend mode="normal" in="SourceGraphic" in2="BackgroundImageFix" result="shape"/>
<feColorMatrix in="SourceAlpha" type="matrix" values="0 0 0 0 0 0 0 0 0 0 0 0 0 0 0 0 0 0 127 0" result="hardAlpha"/>
<feOffset dy="-0.64458"/>
<feComposite in2="hardAlpha" operator="arithmetic" k2="-1" k3="1"/>
<feColorMatrix type="matrix" values="0 0 0 0 0.705727 0 0 0 0 0.570925 0 0 0 0 0.194273 0 0 0 1 0"/>
<feBlend mode="normal" in2="shape" result="effect1_innerShadow_363_6280"/>
</filter>
<filter id="filter6_ii_363_6280" x="131.075" y="50.2274" width="52.3408" height="39.8417" filterUnits="userSpaceOnUse" color-interpolation-filters="sRGB">
<feFlood flood-opacity="0" result="BackgroundImageFix"/>
<feBlend mode="normal" in="SourceGraphic" in2="BackgroundImageFix" result="shape"/>
<feColorMatrix in="SourceAlpha" type="matrix" values="0 0 0 0 0 0 0 0 0 0 0 0 0 0 0 0 0 0 127 0" result="hardAlpha"/>
<feOffset dx="0.782403"/>
<feComposite in2="hardAlpha" operator="arithmetic" k2="-1" k3="1"/>
<feColorMatrix type="matrix" values="0 0 0 0 0.807843 0 0 0 0 0.67451 0 0 0 0 0.301961 0 0 0 1 0"/>
<feBlend mode="normal" in2="shape" result="effect1_innerShadow_363_6280"/>
<feColorMatrix in="SourceAlpha" type="matrix" values="0 0 0 0 0 0 0 0 0 0 0 0 0 0 0 0 0 0 127 0" result="hardAlpha"/>
<feOffset dy="-0.466073"/>
<feComposite in2="hardAlpha" operator="arithmetic" k2="-1" k3="1"/>
<feColorMatrix type="matrix" values="0 0 0 0 0.807843 0 0 0 0 0.67451 0 0 0 0 0.301961 0 0 0 1 0"/>
<feBlend mode="normal" in2="effect1_innerShadow_363_6280" result="effect2_innerShadow_363_6280"/>
</filter>
<filter id="filter7_i_363_6280" x="133.84" y="52.049" width="47.3904" height="36.0735" filterUnits="userSpaceOnUse" color-interpolation-filters="sRGB">
<feFlood flood-opacity="0" result="BackgroundImageFix"/>
<feBlend mode="normal" in="SourceGraphic" in2="BackgroundImageFix" result="shape"/>
<feColorMatrix in="SourceAlpha" type="matrix" values="0 0 0 0 0 0 0 0 0 0 0 0 0 0 0 0 0 0 127 0" result="hardAlpha"/>
<feOffset dy="-0.466072"/>
<feComposite in2="hardAlpha" operator="arithmetic" k2="-1" k3="1"/>
<feColorMatrix type="matrix" values="0 0 0 0 0.705727 0 0 0 0 0.570925 0 0 0 0 0.194273 0 0 0 1 0"/>
<feBlend mode="normal" in2="shape" result="effect1_innerShadow_363_6280"/>
</filter>
<filter id="filter8_ii_363_6280" x="6.45337" y="51.2256" width="34.7627" height="36.6468" filterUnits="userSpaceOnUse" color-interpolation-filters="sRGB">
<feFlood flood-opacity="0" result="BackgroundImageFix"/>
<feBlend mode="normal" in="SourceGraphic" in2="BackgroundImageFix" result="shape"/>
<feColorMatrix in="SourceAlpha" type="matrix" values="0 0 0 0 0 0 0 0 0 0 0 0 0 0 0 0 0 0 127 0" result="hardAlpha"/>
<feOffset dx="0.601411"/>
<feComposite in2="hardAlpha" operator="arithmetic" k2="-1" k3="1"/>
<feColorMatrix type="matrix" values="0 0 0 0 0.807843 0 0 0 0 0.67451 0 0 0 0 0.301961 0 0 0 1 0"/>
<feBlend mode="normal" in2="shape" result="effect1_innerShadow_363_6280"/>
<feColorMatrix in="SourceAlpha" type="matrix" values="0 0 0 0 0 0 0 0 0 0 0 0 0 0 0 0 0 0 127 0" result="hardAlpha"/>
<feOffset dy="-0.358256"/>
<feComposite in2="hardAlpha" operator="arithmetic" k2="-1" k3="1"/>
<feColorMatrix type="matrix" values="0 0 0 0 0.807843 0 0 0 0 0.67451 0 0 0 0 0.301961 0 0 0 1 0"/>
<feBlend mode="normal" in2="effect1_innerShadow_363_6280" result="effect2_innerShadow_363_6280"/>
</filter>
<filter id="filter9_i_363_6280" x="7.91553" y="53.0944" width="31.4749" height="33.1808" filterUnits="userSpaceOnUse" color-interpolation-filters="sRGB">
<feFlood flood-opacity="0" result="BackgroundImageFix"/>
<feBlend mode="normal" in="SourceGraphic" in2="BackgroundImageFix" result="shape"/>
<feColorMatrix in="SourceAlpha" type="matrix" values="0 0 0 0 0 0 0 0 0 0 0 0 0 0 0 0 0 0 127 0" result="hardAlpha"/>
<feOffset dy="-0.358256"/>
<feComposite in2="hardAlpha" operator="arithmetic" k2="-1" k3="1"/>
<feColorMatrix type="matrix" values="0 0 0 0 0.705727 0 0 0 0 0.570925 0 0 0 0 0.194273 0 0 0 1 0"/>
<feBlend mode="normal" in2="shape" result="effect1_innerShadow_363_6280"/>
</filter>
<linearGradient id="paint0_linear_363_6280" x1="102.939" y1="63.5633" x2="94.9238" y2="106.783" gradientUnits="userSpaceOnUse">
<stop stop-color="#F8E173"/>
<stop offset="1" stop-color="#B49232"/>
</linearGradient>
<linearGradient id="paint1_linear_363_6280" x1="104.836" y1="81.9921" x2="111.743" y2="119.235" gradientUnits="userSpaceOnUse">
<stop stop-color="#F8E173"/>
<stop offset="1" stop-color="#B49232"/>
</linearGradient>
<linearGradient id="paint2_linear_363_6280" x1="33.7684" y1="16.6781" x2="75.8922" y2="80.5252" gradientUnits="userSpaceOnUse">
<stop stop-color="#F8E173"/>
<stop offset="1" stop-color="#B49232"/>
</linearGradient>
<linearGradient id="paint3_linear_363_6280" x1="110.637" y1="71.0608" x2="158.195" y2="99.2954" gradientUnits="userSpaceOnUse">
<stop stop-color="#F8E173"/>
<stop offset="1" stop-color="#B49232"/>
</linearGradient>
<linearGradient id="paint4_linear_363_6280" x1="47.9629" y1="43.054" x2="40.2112" y2="84.8549" gradientUnits="userSpaceOnUse">
<stop stop-color="#F8E173"/>
<stop offset="1" stop-color="#B49232"/>
</linearGradient>
</defs>
</svg>
