<svg width="225" height="61" viewBox="0 0 225 61" fill="none" xmlns="http://www.w3.org/2000/svg">
<rect x="0.380859" width="224.239" height="39.5211" rx="1" fill="#F8E173"/>
<path d="M154.85 56.5978L144.576 31.6465L169.527 41.9205L160.332 45.8614C159.64 46.1583 159.088 46.7101 158.791 47.4025L154.85 56.5978Z" fill="white" stroke="black" stroke-width="1.03604" stroke-linecap="round" stroke-linejoin="round"/>
<path d="M111.032 56.5978L100.758 31.6465L125.709 41.9205L116.514 45.8614C115.821 46.1583 115.27 46.7101 114.973 47.4025L111.032 56.5978Z" fill="white" stroke="black" stroke-width="1.03604" stroke-linecap="round" stroke-linejoin="round"/>
<path d="M67.2155 56.5978L56.9414 31.6465L81.8927 41.9205L72.6974 45.8614C72.005 46.1583 71.4532 46.7101 71.1563 47.4025L67.2155 56.5978Z" fill="white" stroke="black" stroke-width="1.03604" stroke-linecap="round" stroke-linejoin="round"/>
<path d="M59.3662 24.1486C58.7247 24.1486 58.1273 24.0444 57.574 23.8359C57.0287 23.6194 56.5516 23.3187 56.1426 22.9338C55.7417 22.5408 55.429 22.0798 55.2044 21.5505C54.9799 21.0213 54.8676 20.4439 54.8676 19.8185C54.8676 19.193 54.9799 18.6156 55.2044 18.0864C55.429 17.5572 55.7457 17.1001 56.1547 16.7152C56.5636 16.3223 57.0407 16.0216 57.586 15.8131C58.1313 15.5966 58.7287 15.4883 59.3782 15.4883C60.0678 15.4883 60.6973 15.6086 61.2666 15.8492C61.836 16.0817 62.3171 16.4305 62.71 16.8956L61.6996 17.8458C61.3949 17.5171 61.0541 17.2725 60.6772 17.1121C60.3004 16.9437 59.8914 16.8595 59.4504 16.8595C59.0093 16.8595 58.6044 16.9317 58.2355 17.076C57.8747 17.2204 57.5579 17.4249 57.2853 17.6895C57.0207 17.9541 56.8122 18.2668 56.6598 18.6277C56.5155 18.9885 56.4433 19.3854 56.4433 19.8185C56.4433 20.2515 56.5155 20.6484 56.6598 21.0092C56.8122 21.3701 57.0207 21.6828 57.2853 21.9474C57.5579 22.2121 57.8747 22.4165 58.2355 22.5609C58.6044 22.7052 59.0093 22.7774 59.4504 22.7774C59.8914 22.7774 60.3004 22.6972 60.6772 22.5368C61.0541 22.3684 61.3949 22.1158 61.6996 21.7791L62.71 22.7413C62.3171 23.1984 61.836 23.5472 61.2666 23.7878C60.6973 24.0283 60.0638 24.1486 59.3662 24.1486ZM66.704 24.1125C66.0465 24.1125 65.4611 23.9722 64.9479 23.6915C64.4347 23.4029 64.0298 23.0099 63.7331 22.5128C63.4364 22.0156 63.288 21.4503 63.288 20.8168C63.288 20.1753 63.4364 19.61 63.7331 19.1208C64.0298 18.6237 64.4347 18.2348 64.9479 17.9541C65.4611 17.6734 66.0465 17.5331 66.704 17.5331C67.3696 17.5331 67.959 17.6734 68.4722 17.9541C68.9934 18.2348 69.3983 18.6197 69.687 19.1088C69.9837 19.5979 70.132 20.1673 70.132 20.8168C70.132 21.4503 69.9837 22.0156 69.687 22.5128C69.3983 23.0099 68.9934 23.4029 68.4722 23.6915C67.959 23.9722 67.3696 24.1125 66.704 24.1125ZM66.704 22.8255C67.0729 22.8255 67.4016 22.7453 67.6903 22.5849C67.979 22.4246 68.2035 22.192 68.3639 21.8873C68.5323 21.5826 68.6165 21.2258 68.6165 20.8168C68.6165 20.3998 68.5323 20.043 68.3639 19.7463C68.2035 19.4416 67.979 19.209 67.6903 19.0487C67.4016 18.8883 67.0769 18.8081 66.716 18.8081C66.3472 18.8081 66.0184 18.8883 65.7297 19.0487C65.4491 19.209 65.2245 19.4416 65.0562 19.7463C64.8878 20.043 64.8036 20.3998 64.8036 20.8168C64.8036 21.2258 64.8878 21.5826 65.0562 21.8873C65.2245 22.192 65.4491 22.4246 65.7297 22.5849C66.0184 22.7453 66.3432 22.8255 66.704 22.8255ZM75.1301 24.1125C74.6089 24.1125 74.1318 23.9922 73.6988 23.7517C73.2738 23.5111 72.933 23.1503 72.6764 22.6691C72.4278 22.18 72.3035 21.5625 72.3035 20.8168C72.3035 20.063 72.4238 19.4456 72.6643 18.9645C72.9129 18.4833 73.2497 18.1265 73.6747 17.894C74.0997 17.6534 74.5848 17.5331 75.1301 17.5331C75.7636 17.5331 76.3209 17.6694 76.802 17.9421C77.2912 18.2147 77.6761 18.5956 77.9567 19.0847C78.2454 19.5739 78.3898 20.1512 78.3898 20.8168C78.3898 21.4824 78.2454 22.0637 77.9567 22.5609C77.6761 23.05 77.2912 23.4309 76.802 23.7036C76.3209 23.9762 75.7636 24.1125 75.1301 24.1125ZM71.5698 26.3618V17.6053H73.0011V19.1208L72.953 20.8288L73.0733 22.5368V26.3618H71.5698ZM74.9617 22.8255C75.3226 22.8255 75.6433 22.7453 75.924 22.5849C76.2127 22.4246 76.4412 22.192 76.6096 21.8873C76.778 21.5826 76.8622 21.2258 76.8622 20.8168C76.8622 20.3998 76.778 20.043 76.6096 19.7463C76.4412 19.4416 76.2127 19.209 75.924 19.0487C75.6433 18.8883 75.3226 18.8081 74.9617 18.8081C74.6009 18.8081 74.2761 18.8883 73.9874 19.0487C73.6988 19.209 73.4702 19.4416 73.3018 19.7463C73.1334 20.043 73.0492 20.3998 73.0492 20.8168C73.0492 21.2258 73.1334 21.5826 73.3018 21.8873C73.4702 22.192 73.6988 22.4246 73.9874 22.5849C74.2761 22.7453 74.6009 22.8255 74.9617 22.8255ZM80.1687 26.446C79.856 26.446 79.5432 26.3939 79.2305 26.2896C78.9178 26.1854 78.6572 26.041 78.4487 25.8566L79.0501 24.75C79.2024 24.8863 79.3748 24.9946 79.5673 25.0748C79.7597 25.155 79.9562 25.1951 80.1567 25.1951C80.4293 25.1951 80.6498 25.1269 80.8182 24.9906C80.9866 24.8543 81.143 24.6257 81.2873 24.305L81.6602 23.463L81.7805 23.2826L84.2102 17.6053H85.6535L82.6465 24.5455C82.446 25.0267 82.2215 25.4076 81.9729 25.6882C81.7324 25.9689 81.4597 26.1653 81.155 26.2776C80.8583 26.3899 80.5295 26.446 80.1687 26.446ZM81.4918 24.2569L78.593 17.6053H80.1567L82.5142 23.1503L81.4918 24.2569ZM85.7969 25.8446L86.4946 23.1863L86.6991 24.0764C86.4184 24.0764 86.1818 23.9922 85.9894 23.8238C85.805 23.6474 85.7128 23.4109 85.7128 23.1142C85.7128 22.8095 85.805 22.5689 85.9894 22.3925C86.1818 22.2081 86.4144 22.1158 86.687 22.1158C86.9677 22.1158 87.2002 22.2081 87.3847 22.3925C87.5691 22.5769 87.6613 22.8175 87.6613 23.1142C87.6613 23.1944 87.6533 23.2826 87.6373 23.3788C87.6212 23.467 87.5932 23.5712 87.5531 23.6915C87.521 23.8118 87.4649 23.9642 87.3847 24.1486L86.7712 25.8446H85.7969ZM95.2091 24.1486C94.5515 24.1486 93.9221 24.0564 93.3207 23.872C92.7193 23.6795 92.2421 23.4349 91.8893 23.1382L92.4306 21.9234C92.7674 22.188 93.1843 22.4085 93.6815 22.5849C94.1787 22.7614 94.6879 22.8496 95.2091 22.8496C95.6501 22.8496 96.007 22.8014 96.2796 22.7052C96.5522 22.609 96.7527 22.4807 96.881 22.3203C97.0093 22.1519 97.0735 21.9635 97.0735 21.755C97.0735 21.4984 96.9812 21.2939 96.7968 21.1416C96.6124 20.9812 96.3718 20.8569 96.0751 20.7687C95.7864 20.6725 95.4617 20.5843 95.1008 20.5041C94.748 20.4239 94.3912 20.3317 94.0303 20.2274C93.6775 20.1152 93.3527 19.9748 93.056 19.8064C92.7674 19.63 92.5308 19.3975 92.3464 19.1088C92.1619 18.8201 92.0697 18.4513 92.0697 18.0022C92.0697 17.5451 92.19 17.1282 92.4306 16.7513C92.6792 16.3664 93.052 16.0617 93.5492 15.8371C94.0544 15.6046 94.6919 15.4883 95.4617 15.4883C95.9669 15.4883 96.468 15.5525 96.9652 15.6808C97.4624 15.8091 97.8954 15.9935 98.2642 16.2341L97.7711 17.4489C97.3942 17.2244 97.0053 17.06 96.6044 16.9558C96.2034 16.8435 95.8185 16.7874 95.4496 16.7874C95.0166 16.7874 94.6638 16.8395 94.3912 16.9437C94.1265 17.048 93.9301 17.1843 93.8018 17.3527C93.6815 17.5211 93.6214 17.7135 93.6214 17.93C93.6214 18.1866 93.7096 18.3951 93.886 18.5555C94.0704 18.7079 94.307 18.8281 94.5956 18.9163C94.8923 19.0046 95.2211 19.0928 95.582 19.181C95.9428 19.2612 96.2996 19.3534 96.6525 19.4576C97.0133 19.5619 97.3381 19.6982 97.6267 19.8666C97.9234 20.035 98.16 20.2635 98.3364 20.5522C98.5208 20.8409 98.6131 21.2057 98.6131 21.6467C98.6131 22.0958 98.4888 22.5128 98.2402 22.8977C97.9996 23.2746 97.6267 23.5793 97.1216 23.8118C96.6164 24.0363 95.9789 24.1486 95.2091 24.1486ZM103.664 17.5331C104.177 17.5331 104.634 17.6333 105.035 17.8338C105.444 18.0343 105.765 18.343 105.997 18.76C106.23 19.1689 106.346 19.6982 106.346 20.3477V24.0283H104.843V20.5402C104.843 19.9708 104.706 19.5458 104.434 19.2652C104.169 18.9845 103.796 18.8442 103.315 18.8442C102.962 18.8442 102.649 18.9163 102.377 19.0607C102.104 19.205 101.892 19.4215 101.739 19.7102C101.595 19.9909 101.523 20.3477 101.523 20.7807V24.0283H100.019V15.1034H101.523V19.3373L101.198 18.8081C101.423 18.3991 101.747 18.0864 102.172 17.8699C102.605 17.6454 103.102 17.5331 103.664 17.5331ZM112.211 24.0283V22.7293L112.126 22.4526V20.1793C112.126 19.7383 111.994 19.3975 111.729 19.1569C111.465 18.9083 111.064 18.784 110.527 18.784C110.166 18.784 109.809 18.8402 109.456 18.9524C109.111 19.0647 108.819 19.2211 108.578 19.4215L107.989 18.327C108.334 18.0623 108.742 17.8659 109.216 17.7376C109.697 17.6013 110.194 17.5331 110.707 17.5331C111.637 17.5331 112.355 17.7576 112.86 18.2067C113.373 18.6477 113.63 19.3333 113.63 20.2635V24.0283H112.211ZM110.19 24.1125C109.709 24.1125 109.288 24.0323 108.927 23.872C108.566 23.7036 108.285 23.475 108.085 23.1863C107.893 22.8897 107.796 22.5569 107.796 22.188C107.796 21.8272 107.88 21.5024 108.049 21.2137C108.225 20.9251 108.51 20.6965 108.903 20.5281C109.296 20.3597 109.817 20.2755 110.467 20.2755H112.331V21.2739H110.575C110.062 21.2739 109.717 21.3581 109.54 21.5265C109.364 21.6868 109.276 21.8873 109.276 22.1279C109.276 22.4005 109.384 22.617 109.601 22.7774C109.817 22.9378 110.118 23.018 110.503 23.018C110.871 23.018 111.2 22.9338 111.489 22.7654C111.786 22.597 111.998 22.3484 112.126 22.0196L112.379 22.9217C112.235 23.2986 111.974 23.5913 111.597 23.7998C111.228 24.0083 110.759 24.1125 110.19 24.1125ZM115.56 24.0283V17.6053H116.991V19.3734L116.822 18.8562C117.015 18.4232 117.316 18.0944 117.725 17.8699C118.142 17.6454 118.659 17.5331 119.276 17.5331V18.9645C119.212 18.9484 119.152 18.9404 119.096 18.9404C119.04 18.9324 118.984 18.9284 118.927 18.9284C118.358 18.9284 117.905 19.0968 117.568 19.4336C117.231 19.7623 117.063 20.2555 117.063 20.913V24.0283H115.56ZM123.512 24.1125C122.798 24.1125 122.173 23.9722 121.636 23.6915C121.106 23.4029 120.693 23.0099 120.397 22.5128C120.108 22.0156 119.964 21.4503 119.964 20.8168C119.964 20.1753 120.104 19.61 120.385 19.1208C120.673 18.6237 121.066 18.2348 121.563 17.9541C122.069 17.6734 122.642 17.5331 123.283 17.5331C123.909 17.5331 124.466 17.6694 124.955 17.9421C125.445 18.2147 125.829 18.5996 126.11 19.0968C126.391 19.5939 126.531 20.1793 126.531 20.8529C126.531 20.917 126.527 20.9892 126.519 21.0694C126.519 21.1496 126.515 21.2258 126.507 21.2979H121.154V20.2996H125.713L125.124 20.6123C125.132 20.2435 125.056 19.9187 124.895 19.638C124.735 19.3574 124.514 19.1369 124.234 18.9765C123.961 18.8161 123.644 18.7359 123.283 18.7359C122.915 18.7359 122.59 18.8161 122.309 18.9765C122.037 19.1369 121.82 19.3614 121.66 19.6501C121.507 19.9307 121.431 20.2635 121.431 20.6484V20.889C121.431 21.2739 121.519 21.6147 121.696 21.9114C121.872 22.2081 122.121 22.4366 122.442 22.597C122.762 22.7573 123.131 22.8375 123.548 22.8375C123.909 22.8375 124.234 22.7814 124.522 22.6691C124.811 22.5569 125.068 22.3805 125.292 22.1399L126.098 23.0661C125.809 23.4029 125.445 23.6635 125.004 23.8479C124.57 24.0243 124.073 24.1125 123.512 24.1125ZM133.874 24.1486C133.288 24.1486 132.763 24.0524 132.298 23.8599C131.833 23.6675 131.468 23.4029 131.203 23.0661C130.939 22.7293 130.806 22.3404 130.806 21.8993C130.806 21.4984 130.895 21.1376 131.071 20.8168C131.247 20.496 131.528 20.1913 131.913 19.9027C132.298 19.606 132.791 19.3093 133.392 19.0126C133.866 18.78 134.234 18.5755 134.499 18.3991C134.772 18.2227 134.96 18.0543 135.064 17.894C135.177 17.7336 135.233 17.5652 135.233 17.3888C135.233 17.1482 135.149 16.9558 134.98 16.8114C134.812 16.6591 134.571 16.5829 134.258 16.5829C133.922 16.5829 133.657 16.6671 133.465 16.8355C133.28 16.9959 133.188 17.2083 133.188 17.473C133.188 17.6093 133.212 17.7416 133.26 17.8699C133.316 17.9982 133.412 18.1425 133.549 18.3029C133.685 18.4633 133.882 18.6678 134.138 18.9163L138.589 23.1863L137.759 24.1606L132.947 19.5418C132.675 19.2772 132.454 19.0326 132.286 18.8081C132.117 18.5836 131.997 18.3671 131.925 18.1586C131.853 17.9421 131.817 17.7215 131.817 17.497C131.817 17.1041 131.917 16.7593 132.117 16.4626C132.318 16.1579 132.603 15.9253 132.971 15.765C133.34 15.5966 133.769 15.5124 134.258 15.5124C134.716 15.5124 135.108 15.5886 135.437 15.7409C135.774 15.8852 136.035 16.0977 136.219 16.3784C136.411 16.651 136.508 16.9798 136.508 17.3647C136.508 17.7015 136.424 18.0142 136.255 18.3029C136.087 18.5836 135.822 18.8522 135.461 19.1088C135.108 19.3654 134.635 19.634 134.042 19.9147C133.601 20.1312 133.252 20.3357 132.995 20.5281C132.739 20.7206 132.554 20.913 132.442 21.1055C132.33 21.2979 132.274 21.5104 132.274 21.743C132.274 21.9755 132.342 22.18 132.478 22.3564C132.623 22.5328 132.823 22.6731 133.08 22.7774C133.336 22.8736 133.637 22.9217 133.982 22.9217C134.495 22.9217 134.96 22.8095 135.377 22.5849C135.802 22.3524 136.159 22.0076 136.448 21.5505C136.736 21.0934 136.945 20.5281 137.073 19.8545L138.288 20.2515C138.119 21.0614 137.827 21.759 137.41 22.3444C137.001 22.9217 136.496 23.3668 135.894 23.6795C135.293 23.9922 134.619 24.1486 133.874 24.1486ZM144.704 19.1088H148.89V20.3958H144.704V19.1088ZM144.824 22.7172H149.575V24.0283H143.261V15.6086H149.407V16.9197H144.824V22.7172ZM155.073 24.0283V22.7293L154.989 22.4526V20.1793C154.989 19.7383 154.856 19.3975 154.592 19.1569C154.327 18.9083 153.926 18.784 153.389 18.784C153.028 18.784 152.671 18.8402 152.318 18.9524C151.973 19.0647 151.681 19.2211 151.44 19.4215L150.851 18.327C151.196 18.0623 151.605 17.8659 152.078 17.7376C152.559 17.6013 153.056 17.5331 153.569 17.5331C154.499 17.5331 155.217 17.7576 155.722 18.2067C156.235 18.6477 156.492 19.3333 156.492 20.2635V24.0283H155.073ZM153.052 24.1125C152.571 24.1125 152.15 24.0323 151.789 23.872C151.428 23.7036 151.148 23.475 150.947 23.1863C150.755 22.8897 150.658 22.5569 150.658 22.188C150.658 21.8272 150.743 21.5024 150.911 21.2137C151.087 20.9251 151.372 20.6965 151.765 20.5281C152.158 20.3597 152.679 20.2755 153.329 20.2755H155.193V21.2739H153.437C152.924 21.2739 152.579 21.3581 152.402 21.5265C152.226 21.6868 152.138 21.8873 152.138 22.1279C152.138 22.4005 152.246 22.617 152.463 22.7774C152.679 22.9378 152.98 23.018 153.365 23.018C153.734 23.018 154.062 22.9338 154.351 22.7654C154.648 22.597 154.86 22.3484 154.989 22.0196L155.241 22.9217C155.097 23.2986 154.836 23.5913 154.459 23.7998C154.09 24.0083 153.621 24.1125 153.052 24.1125ZM158.422 24.0283V17.6053H159.853V19.3734L159.685 18.8562C159.877 18.4232 160.178 18.0944 160.587 17.8699C161.004 17.6454 161.521 17.5331 162.138 17.5331V18.9645C162.074 18.9484 162.014 18.9404 161.958 18.9404C161.902 18.9324 161.846 18.9284 161.79 18.9284C161.22 18.9284 160.767 19.0968 160.43 19.4336C160.094 19.7623 159.925 20.2555 159.925 20.913V24.0283H158.422ZM167.058 17.5331C167.572 17.5331 168.029 17.6333 168.43 17.8338C168.838 18.0343 169.159 18.343 169.392 18.76C169.624 19.1689 169.741 19.6982 169.741 20.3477V24.0283H168.237V20.5402C168.237 19.9708 168.101 19.5458 167.828 19.2652C167.564 18.9845 167.191 18.8442 166.71 18.8442C166.357 18.8442 166.044 18.9163 165.771 19.0607C165.499 19.205 165.286 19.4215 165.134 19.7102C164.989 19.9909 164.917 20.3477 164.917 20.7807V24.0283H163.414V17.6053H164.845V19.3373L164.593 18.8081C164.817 18.3991 165.142 18.0864 165.567 17.8699C166 17.6454 166.497 17.5331 167.058 17.5331Z" fill="black"/>
</svg>
