<svg width="592" height="592" viewBox="0 0 592 592" fill="none" xmlns="http://www.w3.org/2000/svg">
<g clip-path="url(#clip0_40021_322)">
<path d="M453.25 0H138.75C62.1205 0 0 62.1205 0 138.75V453.25C0 529.88 62.1205 592 138.75 592H453.25C529.88 592 592 529.88 592 453.25V138.75C592 62.1205 529.88 0 453.25 0Z" fill="#5865F2"/>
<mask id="mask0_40021_322" style="mask-type:luminance" maskUnits="userSpaceOnUse" x="64" y="117" width="464" height="360">
<path d="M64.75 117.938H527.25V476.213H64.75V117.938Z" fill="white"/>
</mask>
<g mask="url(#mask0_40021_322)">
<path d="M456.273 149.919C426.288 136.156 394.644 126.341 362.134 120.719C361.838 120.665 361.533 120.705 361.262 120.833C360.991 120.962 360.767 121.173 360.621 121.436C356.556 128.664 352.051 138.099 348.899 145.513C313.349 140.19 277.984 140.19 243.165 145.513C240.011 137.933 235.344 128.664 231.26 121.436C231.11 121.177 230.884 120.97 230.614 120.842C230.344 120.714 230.041 120.671 229.745 120.719C197.232 126.328 165.587 136.144 135.606 149.919C135.351 150.03 135.135 150.215 134.986 150.45C75.0277 240.027 58.6043 327.403 66.661 413.696C66.7101 414.122 66.9264 414.512 67.2623 414.778C106.82 443.83 145.14 461.468 182.749 473.158C183.041 473.244 183.353 473.24 183.643 473.145C183.933 473.05 184.187 472.869 184.372 472.626C193.268 460.476 201.198 447.667 207.999 434.197C208.092 434.012 208.146 433.81 208.156 433.603C208.165 433.396 208.131 433.19 208.055 432.997C207.98 432.805 207.864 432.631 207.716 432.486C207.568 432.342 207.391 432.23 207.196 432.159C194.616 427.386 182.64 421.57 171.119 414.963C170.909 414.84 170.733 414.667 170.606 414.459C170.479 414.251 170.405 414.015 170.39 413.772C170.376 413.529 170.422 413.286 170.523 413.065C170.625 412.843 170.779 412.65 170.973 412.503C173.404 410.686 175.793 408.814 178.137 406.888C178.343 406.719 178.592 406.61 178.855 406.574C179.119 406.538 179.388 406.577 179.631 406.685C255.324 441.243 337.267 441.243 412.065 406.685C412.31 406.57 412.581 406.526 412.849 406.559C413.117 406.592 413.37 406.699 413.58 406.87C415.927 408.806 418.322 410.685 420.763 412.503C420.957 412.649 421.113 412.841 421.216 413.061C421.319 413.282 421.367 413.524 421.354 413.767C421.342 414.01 421.269 414.246 421.144 414.455C421.019 414.664 420.844 414.838 420.635 414.963C409.108 421.694 397.033 427.441 384.54 432.141C384.346 432.215 384.17 432.33 384.024 432.477C383.878 432.624 383.764 432.8 383.69 432.994C383.616 433.188 383.584 433.395 383.595 433.602C383.606 433.809 383.661 434.012 383.756 434.197C390.674 447.56 398.564 460.398 407.362 472.607C407.542 472.856 407.795 473.043 408.086 473.141C408.376 473.24 408.691 473.246 408.985 473.158C446.776 461.468 485.096 443.83 524.656 414.778C524.825 414.653 524.966 414.494 525.07 414.31C525.173 414.127 525.237 413.924 525.258 413.715C534.901 313.951 509.105 227.29 456.875 150.469C456.748 150.219 456.534 150.023 456.273 149.919ZM219.302 361.154C196.513 361.154 177.735 340.233 177.735 314.539C177.735 288.844 196.149 267.923 219.302 267.923C242.635 267.923 261.23 289.029 260.865 314.539C260.865 340.233 242.453 361.154 219.302 361.154ZM372.982 361.154C350.192 361.154 331.417 340.233 331.417 314.539C331.417 288.844 349.829 267.923 372.982 267.923C396.315 267.923 414.91 289.029 414.547 314.539C414.547 340.233 396.315 361.154 372.982 361.154Z" fill="white"/>
</g>
</g>
<defs>
<clipPath id="clip0_40021_322">
<rect width="592" height="592" fill="white"/>
</clipPath>
</defs>
</svg>
