<svg width="78" height="96" viewBox="0 0 78 96" fill="none" xmlns="http://www.w3.org/2000/svg">
<path d="M0.999947 80.5L1.40455 33.0607L1.44638 1.90048L52.5356 1.96907L75.0524 24.3773L75 80.5C54.5 101.5 20.5 100.5 0.999947 80.5Z" fill="url(#paint0_linear_461_4143)"/>
<path d="M12.3665 43.6307L12.374 38.0573L62.7033 38.1249L62.6958 43.6983L12.3665 43.6307Z" fill="white"/>
<path d="M12.3519 55.1152L12.3594 49.5419L52.5552 49.5958L52.5477 55.1692L12.3519 55.1152Z" fill="white"/>
<path d="M12.3363 67.1065L12.3438 61.5331L59.1263 61.5959L59.1188 67.1693L12.3363 67.1065Z" fill="white"/>
<g filter="url(#filter0_d_461_4143)">
<path d="M52.5897 24.6004L52.6201 1.96912L75.1366 24.6307L52.5897 24.6004Z" fill="#977E08"/>
</g>
<defs>
<filter id="filter0_d_461_4143" x="50.4618" y="0.516669" width="26.8029" height="26.9176" filterUnits="userSpaceOnUse" color-interpolation-filters="sRGB">
<feFlood flood-opacity="0" result="BackgroundImageFix"/>
<feColorMatrix in="SourceAlpha" type="matrix" values="0 0 0 0 0 0 0 0 0 0 0 0 0 0 0 0 0 0 127 0" result="hardAlpha"/>
<feOffset dy="0.675556"/>
<feGaussianBlur stdDeviation="1.064"/>
<feComposite in2="hardAlpha" operator="out"/>
<feColorMatrix type="matrix" values="0 0 0 0 0 0 0 0 0 0 0 0 0 0 0 0 0 0 0.25 0"/>
<feBlend mode="normal" in2="BackgroundImageFix" result="effect1_dropShadow_461_4143"/>
<feBlend mode="normal" in="SourceGraphic" in2="effect1_dropShadow_461_4143" result="shape"/>
</filter>
<linearGradient id="paint0_linear_461_4143" x1="38" y1="39.5" x2="37.9793" y2="95.8772" gradientUnits="userSpaceOnUse">
<stop stop-color="#F8E173"/>
<stop offset="1" stop-color="#977E08"/>
</linearGradient>
</defs>
</svg>
