<svg width="22" height="22" viewBox="0 0 22 22" fill="none" xmlns="http://www.w3.org/2000/svg">
<path d="M20.1667 7.79167C20.1667 11.0825 17.4992 13.75 14.2083 13.75C14.0525 13.75 13.8875 13.7408 13.7317 13.7317C13.5025 10.8258 11.1742 8.49749 8.26832 8.26833C8.25916 8.11249 8.25 7.9475 8.25 7.79167C8.25 4.50084 10.9175 1.83334 14.2083 1.83334C17.4992 1.83334 20.1667 4.50084 20.1667 7.79167Z" stroke="#A1A7BB" stroke-width="1.375" stroke-linecap="round" stroke-linejoin="round"/>
<path d="M13.7497 14.2083C13.7497 17.4992 11.0822 20.1667 7.79134 20.1667C4.50051 20.1667 1.83301 17.4992 1.83301 14.2083C1.83301 10.9175 4.50051 8.25 7.79134 8.25C7.94717 8.25 8.11216 8.25916 8.268 8.26832C11.1738 8.49749 13.5022 10.8258 13.7314 13.7317C13.7405 13.8875 13.7497 14.0525 13.7497 14.2083Z" stroke="#A1A7BB" stroke-width="1.375" stroke-linecap="round" stroke-linejoin="round"/>
<path d="M6.985 13.4017L7.79167 11.9167L8.59834 13.4017L10.0833 14.2083L8.59834 15.015L7.79167 16.5L6.985 15.015L5.5 14.2083L6.985 13.4017Z" stroke="#A1A7BB" stroke-width="1.375" stroke-linecap="round" stroke-linejoin="round"/>
</svg>
