<svg width="58" height="54" viewBox="0 0 58 54" fill="none" xmlns="http://www.w3.org/2000/svg">
<g opacity="0.06" filter="url(#filter0_d_34167_7308)">
<path d="M29.1837 17.572C29.1837 21.7645 32.4012 25.1445 36.3987 25.1445H44.5562C48.0337 25.1445 50.8612 22.187 50.8612 18.547C50.8612 14.582 49.1387 13.1845 46.5712 12.2745L33.4737 7.72449C30.9062 6.81449 29.1837 5.41699 29.1837 1.45199C29.1837 -2.18801 32.0112 -5.14551 35.4887 -5.14551H43.6462C47.6437 -5.14551 50.8612 -1.76551 50.8612 2.42699" stroke="#0052FF" stroke-width="5.5625" stroke-linecap="round" stroke-linejoin="round"/>
<path d="M40 -9.50049V29.4995" stroke="#0052FF" stroke-width="5.5625" stroke-linecap="round" stroke-linejoin="round"/>
<path d="M40 42.5005C57.9492 42.5005 72.5 27.9497 72.5 10.0005C72.5 -7.94877 57.9492 -22.4995 40 -22.4995C22.0507 -22.4995 7.5 -7.94877 7.5 10.0005C7.5 27.9497 22.0507 42.5005 40 42.5005Z" stroke="#0052FF" stroke-width="5.5625" stroke-linecap="round" stroke-linejoin="round"/>
</g>
<defs>
<filter id="filter0_d_34167_7308" x="-3" y="-29" width="86" height="86" filterUnits="userSpaceOnUse" color-interpolation-filters="sRGB">
<feFlood flood-opacity="0" result="BackgroundImageFix"/>
<feColorMatrix in="SourceAlpha" type="matrix" values="0 0 0 0 0 0 0 0 0 0 0 0 0 0 0 0 0 0 127 0" result="hardAlpha"/>
<feOffset dy="4"/>
<feGaussianBlur stdDeviation="2"/>
<feComposite in2="hardAlpha" operator="out"/>
<feColorMatrix type="matrix" values="0 0 0 0 0 0 0 0 0 0 0 0 0 0 0 0 0 0 0.25 0"/>
<feBlend mode="normal" in2="BackgroundImageFix" result="effect1_dropShadow_34167_7308"/>
<feBlend mode="normal" in="SourceGraphic" in2="effect1_dropShadow_34167_7308" result="shape"/>
</filter>
</defs>
</svg>
