<svg width="36" height="34" viewBox="0 0 36 34" fill="none" xmlns="http://www.w3.org/2000/svg">
<path d="M22.5503 6.12842L18.193 5.7323L13.8922 6.12842L18.193 0.29976L22.5503 6.12842Z" fill="url(#paint0_linear_31570_6413)"/>
<g filter="url(#filter0_d_31570_6413)">
<path d="M22.551 6.12842L18.1936 5.7323V0.29976L22.551 6.12842Z" fill="url(#paint1_linear_31570_6413)"/>
</g>
<path d="M30.1696 18.1216L29.3062 13.8323L27.6997 9.82324L34.513 12.2826L30.1696 18.1216Z" fill="url(#paint2_linear_31570_6413)"/>
<g filter="url(#filter1_d_31570_6413)">
<path d="M30.1698 18.1216L29.3064 13.8323L34.5132 12.2826L30.1698 18.1216Z" fill="url(#paint3_linear_31570_6413)"/>
</g>
<path d="M6.1449 18.1572L7.00785 13.868L8.61401 9.85889L1.80092 12.3187L6.1449 18.1572Z" fill="url(#paint4_linear_31570_6413)"/>
<g filter="url(#filter2_d_31570_6413)">
<path d="M6.14434 18.1573L7.00729 13.868L1.80036 12.3187L6.14434 18.1573Z" fill="url(#paint5_linear_31570_6413)"/>
</g>
<path d="M9.11421 10.5635L11.246 8.34098L13.7135 6.56543L8.73729 5.45509L9.11421 10.5635Z" fill="url(#paint6_linear_31570_6413)"/>
<g filter="url(#filter3_d_31570_6413)">
<path d="M9.1144 10.5639L11.2462 8.34133L8.73748 5.45543L9.1144 10.5639Z" fill="url(#paint7_linear_31570_6413)"/>
</g>
<path d="M27.3093 10.6997L25.3705 8.30646L23.0598 6.33057L28.1117 5.64039L27.3093 10.6997Z" fill="url(#paint8_linear_31570_6413)"/>
<g filter="url(#filter4_d_31570_6413)">
<path d="M27.3093 10.6984L25.3705 8.30511L28.1117 5.63904L27.3093 10.6984Z" fill="url(#paint9_linear_31570_6413)"/>
</g>
<path d="M22.3242 28.709L18.1929 29.2749L14.1188 28.709L18.1929 33.2927L22.3242 28.709Z" fill="#D76D23"/>
<g filter="url(#filter5_d_31570_6413)">
<path d="M22.3249 28.709L18.1936 29.2749V33.2927L22.3249 28.709Z" fill="#964603"/>
</g>
<g filter="url(#filter6_i_31570_6413)">
<circle cx="18.1934" cy="17.3899" r="11.9969" fill="url(#paint10_linear_31570_6413)"/>
</g>
<g filter="url(#filter7_ii_31570_6413)">
<circle cx="18.1931" cy="17.3905" r="10.8651" fill="#110B08"/>
</g>
<path d="M17.8148 12.307C18.0782 11.808 18.8131 11.8754 18.9814 12.4139L19.7002 14.7142C19.9669 15.5676 19.9312 16.4869 19.5992 17.317L19.1173 18.5218C18.1858 20.8505 15.9304 22.3775 13.4223 22.3775C13.0035 22.3775 12.7349 21.9321 12.9304 21.5617L17.8148 12.307Z" fill="url(#paint11_linear_31570_6413)"/>
<path d="M19.8998 17.2714C20.0736 16.852 20.65 16.8072 20.8866 17.1947L23.5092 21.49C23.7448 21.8759 23.467 22.3709 23.0149 22.3709H22.3055C21.4892 22.3709 20.7295 21.9539 20.2912 21.2652L19.7187 20.3655C19.3005 19.7084 19.2292 18.8886 19.5275 18.1691L19.8998 17.2714Z" fill="url(#paint12_linear_31570_6413)"/>
<path d="M18.667 19.9239C18.7946 19.7147 19.1268 19.7211 19.2294 19.9436C19.5109 20.5547 19.7696 20.9963 20.0721 21.449C20.3337 21.8405 20.0638 22.3699 19.593 22.3699H16.4074C16.2186 22.3699 16.1607 22.0658 16.3299 21.9821C17.2322 21.536 18.089 20.8725 18.667 19.9239Z" fill="url(#paint13_linear_31570_6413)"/>
<g filter="url(#filter8_f_31570_6413)">
<ellipse cx="12.5278" cy="13.1389" rx="5.21847" ry="2.22874" transform="rotate(-51.8925 12.5278 13.1389)" fill="#FFAB78"/>
</g>
<path d="M3.65288 21.4846L4.32884 21.8601L4.72496 22.0299C4.91026 21.8816 5.0528 21.6868 5.13798 21.4653L5.1649 21.3953C5.24868 21.1775 5.31127 20.9521 5.35183 20.7223L5.37616 20.5844C5.43204 20.2678 5.43204 19.9439 5.37616 19.6272L5.36242 19.5494C5.31488 19.28 5.23544 19.0172 5.12578 18.7665L4.89473 18.2384L4.7329 17.9754C4.53925 17.6608 4.32218 17.3611 4.08352 17.0791L3.81954 16.7671L3.57994 17.0866C3.28833 17.4754 3.05116 17.9022 2.875 18.3552L2.84803 18.4245C2.77906 18.6019 2.7267 18.7852 2.69163 18.9723L2.66631 19.1073C2.60566 19.4308 2.60389 19.7626 2.66108 20.0867C2.71578 20.3967 2.84458 20.6888 3.03649 20.9383L3.07126 20.9835C3.22891 21.1885 3.42685 21.359 3.65288 21.4846Z" fill="url(#paint14_linear_31570_6413)"/>
<path d="M7.91359 25.8161L8.11461 25.9075C8.15571 25.9261 8.20032 25.9358 8.24546 25.9358H8.25832C8.38841 25.9358 8.5142 25.8893 8.61297 25.8046L8.76031 25.6783C8.82349 25.6242 8.8752 25.5579 8.91242 25.4835L8.92484 25.4587C9.06566 25.177 9.13898 24.8664 9.13898 24.5516V24.443C9.13898 24.0106 9.03829 23.584 8.84489 23.1972C8.73965 22.9868 8.6056 22.792 8.4466 22.6185L8.23313 22.3857C8.12054 22.2629 7.99544 22.1521 7.85986 22.0553L7.66987 21.9196C7.40555 21.7308 7.11678 21.5788 6.81152 21.4678L6.64907 21.4087L6.58233 22.3096C6.55142 22.7269 6.5541 23.1461 6.59036 23.563L6.60534 23.7353C6.63431 24.0684 6.71619 24.3948 6.8479 24.7021C6.94105 24.9194 7.0698 25.1197 7.22886 25.2947L7.28915 25.361C7.4642 25.5535 7.67668 25.7084 7.91359 25.8161Z" fill="url(#paint15_linear_31570_6413)"/>
<path d="M4.04569 19.2006L3.81934 18.0122L3.91001 19.735C3.92496 20.019 3.97437 20.3001 4.05717 20.5722L4.32864 21.4641L4.55563 22.0695C4.74345 22.5703 4.97639 23.053 5.25159 23.5117L5.85654 24.5199L6.76196 25.7083L6.78136 25.7277C7.2582 26.2045 7.76989 26.6452 8.31219 27.046L10.1007 28.368L10.6459 28.6999C11.1492 29.0062 11.6779 29.2688 12.2261 29.4847L13.2697 29.8959L13.6463 30.0399C14.6746 30.433 15.7443 30.7075 16.8348 30.8579L18.6456 30.9711L20.1284 30.9066C20.8734 30.8742 21.6132 30.7668 22.3366 30.5859L23.0596 30.4052L21.2487 30.5184H19.2681L18.0232 30.4052L16.665 30.1788L15.6464 29.9525L14.458 29.6129L13.496 29.33L12.5906 28.9905L12.1543 28.8365C11.8047 28.7131 11.4677 28.5563 11.1481 28.3683C10.8275 28.1797 10.5208 27.9684 10.2304 27.7361L10.1007 27.6323L9.36505 27.0664L8.5728 26.444L8.51621 25.6517L8.40304 24.9161L8.23327 24.1804L8.10414 23.7284C8.03942 23.5019 7.95733 23.2807 7.85861 23.0668C7.73171 22.7919 7.56823 22.5353 7.37262 22.3041L7.0449 21.9168L7.38444 22.5959L7.83251 23.8994C7.94858 24.237 8.03642 24.5838 8.09512 24.936L8.10817 25.0143C8.15368 25.2874 8.16671 25.5649 8.14699 25.841L8.12009 26.2176L7.65815 25.8915C7.32761 25.6582 7.04298 25.3659 6.81855 25.0292L6.08289 23.8409L5.0077 21.9168L4.71802 21.2409C4.45885 20.6362 4.24847 20.0117 4.08889 19.3734L4.04569 19.2006Z" fill="url(#paint16_linear_31570_6413)"/>
<path d="M12.421 29.4994L13.0435 29.7258L13.0237 29.8842C12.9996 30.0772 12.9269 30.261 12.8125 30.4183L12.7069 30.5635C12.5925 30.7208 12.4535 30.8586 12.2953 30.9716C12.1912 31.046 12.0757 31.1031 11.9535 31.1407L11.8705 31.1662C11.5612 31.2614 11.2368 31.2975 10.9141 31.2727L10.8685 31.2692C10.7344 31.2589 10.6016 31.235 10.4722 31.1981C10.3384 31.1599 10.2102 31.1042 10.0909 31.0326L9.97986 30.966C9.79674 30.8561 9.62237 30.7323 9.45831 30.5956L9.36523 30.518L10.0662 30.0232C10.24 29.9005 10.4228 29.7912 10.6131 29.696L10.6519 29.6766C10.9606 29.5223 11.2967 29.4302 11.6409 29.4056C11.8205 29.3927 12.001 29.4061 12.1768 29.4451L12.421 29.4994Z" fill="url(#paint17_linear_31570_6413)"/>
<path d="M4.83245 27.807L4.72485 27.6321C5.09862 27.3705 5.51926 27.1833 5.96381 27.0807L6.08384 27.053C6.53453 26.949 6.99556 26.8965 7.45809 26.8965H7.58302C7.90113 26.8965 8.21695 26.9502 8.51719 27.0552C8.96173 27.2108 9.35839 27.4789 9.66853 27.8334L9.98762 28.198C9.7998 28.461 9.57835 28.6982 9.32891 28.9036L9.14509 29.055C8.8811 29.2724 8.5664 29.4194 8.23028 29.4825C7.97018 29.5312 7.70365 29.5351 7.44225 29.4938L7.26869 29.4664C6.93293 29.4134 6.60732 29.309 6.30329 29.157L6.282 29.1464C6.07441 29.0426 5.87785 28.918 5.69535 28.7746C5.35287 28.5055 5.06072 28.1779 4.83245 27.807Z" fill="url(#paint18_linear_31570_6413)"/>
<path d="M11.3539 28.5016L11.4386 28.5407C11.6755 28.6501 11.9334 28.7067 12.1943 28.7067L12.3297 28.4089C12.4277 28.1934 12.497 27.966 12.5359 27.7325C12.5721 27.5156 12.5746 27.2944 12.5435 27.0767L12.524 26.9397C12.4931 26.7237 12.423 26.5151 12.317 26.3244L12.3074 26.3072C12.2322 26.1718 12.1452 26.0432 12.0475 25.9229L11.8433 25.6716C11.5891 25.3587 11.2791 25.0956 10.9291 24.8956C10.7555 24.7964 10.5651 24.7299 10.3674 24.6995L9.93079 24.6323L10.044 26.1036L10.112 26.6816C10.1419 26.9363 10.2084 27.1853 10.3095 27.4211L10.3232 27.453C10.4375 27.7197 10.6084 27.9584 10.8241 28.1526C10.9822 28.2948 11.1608 28.4125 11.3539 28.5016Z" fill="url(#paint19_linear_31570_6413)"/>
<path d="M6.03193 24.7773L6.13898 25.3126L6.07589 25.4598C6.00741 25.6196 5.88009 25.7469 5.72031 25.8154C5.3645 25.9678 4.97452 26.0229 4.5904 25.9749L4.55233 25.9701C4.36579 25.9468 4.18262 25.9017 4.0066 25.8357L3.73974 25.7356C3.49209 25.6427 3.25993 25.5129 3.05115 25.3505C2.92195 25.25 2.80353 25.1364 2.6978 25.0114L2.49544 24.7723C2.322 24.5673 2.17366 24.3424 2.05358 24.1022C1.91076 23.8166 1.81004 23.5118 1.75454 23.1973L1.66846 22.7095L2.68706 22.7661L3.28865 22.8234C3.67769 22.8604 4.0591 22.9549 4.42046 23.1037L4.47142 23.1247C4.71427 23.2246 4.94217 23.3577 5.14868 23.5199L5.36221 23.6877C5.53904 23.8266 5.68899 23.9967 5.80469 24.1895C5.91356 24.371 5.99043 24.5698 6.03193 24.7773Z" fill="url(#paint20_linear_31570_6413)"/>
<path d="M12.5907 29.9524L13.0434 29.7261L13.1 29.8393L12.8737 30.009L12.5812 30.1796C12.3243 30.3295 12.0511 30.4493 11.7668 30.5368C11.5622 30.5997 11.3512 30.6398 11.1378 30.6562L10.9629 30.6697C10.8035 30.6819 10.6433 30.6792 10.4845 30.6615C10.306 30.6417 10.1336 30.5855 9.97771 30.4965L9.81787 30.4051L9.91364 30.4211C10.0759 30.4481 10.2401 30.4617 10.4045 30.4617C10.7296 30.4617 11.0539 30.4325 11.3737 30.3743L11.5155 30.3486L12.0814 30.1788L12.5907 29.9524Z" fill="#DE7E32"/>
<path d="M9.30865 28.2544L9.93113 28.1412L9.98772 28.2544L10.2141 28.4242L9.81795 28.4808L9.30865 28.5374L8.29005 28.594H7.84226C7.53776 28.594 7.23384 28.5673 6.93396 28.5144L6.91569 28.5112C6.58839 28.4534 6.27008 28.353 5.96891 28.2125C5.70659 28.09 5.4612 27.9342 5.23882 27.7489L5.23425 27.7451L6.5358 28.1412L6.55131 28.1441C7.14331 28.2551 7.74433 28.311 8.34664 28.311L9.30865 28.2544Z" fill="#DE7E32"/>
<path d="M11.742 27.8578L11.9118 28.7632L12.2513 28.8764C12.2513 28.6882 12.2339 28.5004 12.1992 28.3154L12.0816 27.688L12.0782 27.6728C12.0053 27.3447 11.8924 27.0267 11.742 26.726L11.4025 26.1035L11.2883 25.9437C11.176 25.7865 11.0509 25.6388 10.9142 25.5021L10.2707 24.8586L11.063 26.2167L11.4025 26.8392L11.6289 27.4051L11.742 27.8578Z" fill="#DE7E32"/>
<path d="M5.91337 25.5942L6.93197 25.8772L6.47926 25.3113C6.17788 25.236 5.88256 25.1381 5.5958 25.0186L4.66842 24.6322L4.26765 24.4319C3.85632 24.2262 3.46068 23.9905 3.08393 23.7268L2.40486 23.2175L1.95215 22.9346L2.29017 23.3082C2.77994 23.8495 3.3312 24.3318 3.93276 24.7454L4.26425 24.9112C4.7971 25.1776 5.3482 25.4059 5.91337 25.5942Z" fill="#DE7E32"/>
<path d="M32.6195 21.4841L31.9435 21.8596L31.5474 22.0294C31.3621 21.8811 31.2195 21.6863 31.1344 21.4648L31.1074 21.3948C31.0237 21.177 30.9611 20.9517 30.9205 20.7218L30.8962 20.5839C30.8403 20.2673 30.8403 19.9434 30.8962 19.6267L30.9099 19.5489C30.9575 19.2795 31.0369 19.0167 31.1466 18.766L31.3776 18.2379L31.5394 17.9749C31.7331 17.6603 31.9502 17.3606 32.1888 17.0786L32.4528 16.7666L32.6924 17.0861C32.984 17.4749 33.2212 17.9017 33.3973 18.3547L33.4243 18.424C33.4933 18.6014 33.5456 18.7847 33.5807 18.9718L33.606 19.1068C33.6667 19.4303 33.6685 19.7621 33.6113 20.0862C33.5566 20.3962 33.4278 20.6884 33.2358 20.9378L33.2011 20.983C33.0434 21.188 32.8455 21.3585 32.6195 21.4841Z" fill="url(#paint21_linear_31570_6413)"/>
<path d="M28.3587 25.8156L28.1577 25.907C28.1166 25.9257 28.072 25.9353 28.0269 25.9353H28.014C27.8839 25.9353 27.7581 25.8888 27.6594 25.8041L27.512 25.6778C27.4488 25.6237 27.3971 25.5574 27.3599 25.483L27.3475 25.4582C27.2067 25.1765 27.1334 24.866 27.1334 24.5511V24.4425C27.1334 24.0101 27.234 23.5836 27.4275 23.1968C27.5327 22.9863 27.6667 22.7915 27.8257 22.6181L28.0392 22.3852C28.1518 22.2624 28.2769 22.1516 28.4125 22.0548L28.6025 21.9191C28.8668 21.7303 29.1556 21.5783 29.4608 21.4673L29.6233 21.4082L29.69 22.3091C29.7209 22.7264 29.7182 23.1456 29.682 23.5625L29.667 23.7348C29.638 24.0679 29.5562 24.3943 29.4244 24.7016C29.3313 24.9189 29.2025 25.1192 29.0435 25.2942L28.9832 25.3605C28.8081 25.5531 28.5957 25.7079 28.3587 25.8156Z" fill="url(#paint22_linear_31570_6413)"/>
<path d="M32.2266 19.2006L32.453 18.0122L32.3623 19.735C32.3474 20.019 32.298 20.3001 32.2152 20.5722L31.9437 21.4641L31.7167 22.0695C31.5289 22.5703 31.2959 23.053 31.0207 23.5117L30.4158 24.5199L29.5104 25.7083L29.491 25.7277C29.0141 26.2045 28.5024 26.6452 27.9601 27.046L26.1716 28.368L25.6264 28.6999C25.1231 29.0062 24.5945 29.2688 24.0463 29.4847L23.0027 29.8959L22.626 30.0399C21.5978 30.433 20.528 30.7075 19.4376 30.8579L17.6267 30.9711L16.144 30.9066C15.399 30.8742 14.6591 30.7668 13.9357 30.5859L13.2128 30.4052L15.0236 30.5184H17.0042L18.2492 30.4052L19.6073 30.1788L20.6259 29.9525L21.8143 29.6129L22.7763 29.33L23.6817 28.9905L24.118 28.8365C24.4677 28.7131 24.8047 28.5563 25.1243 28.3683C25.4448 28.1797 25.7515 27.9684 26.0419 27.7361L26.1716 27.6323L26.9073 27.0664L27.6995 26.444L27.7561 25.6517L27.8693 24.9161L28.0391 24.1804L28.1682 23.7284C28.2329 23.5019 28.315 23.2807 28.4137 23.0668C28.5406 22.7919 28.7041 22.5353 28.8997 22.3041L29.2274 21.9168L28.8879 22.5959L28.4398 23.8994C28.3238 24.237 28.2359 24.5838 28.1772 24.936L28.1642 25.0143C28.1187 25.2874 28.1056 25.5649 28.1253 25.841L28.1522 26.2176L28.6142 25.8915C28.9447 25.6582 29.2294 25.3659 29.4538 25.0292L30.1894 23.8409L31.2646 21.9168L31.5543 21.2409C31.8135 20.6362 32.0239 20.0117 32.1834 19.3734L32.2266 19.2006Z" fill="url(#paint23_linear_31570_6413)"/>
<path d="M23.9081 29.4994L23.2856 29.7258L23.3054 29.8842C23.3295 30.0772 23.4022 30.261 23.5166 30.4183L23.6222 30.5635C23.7366 30.7208 23.8756 30.8586 24.0338 30.9716C24.1379 31.046 24.2534 31.1031 24.3756 31.1407L24.4586 31.1662C24.7679 31.2614 25.0923 31.2975 25.415 31.2727L25.4606 31.2692C25.5947 31.2589 25.7275 31.235 25.8569 31.1981C25.9907 31.1599 26.1189 31.1042 26.2382 31.0326L26.3492 30.966C26.5324 30.8561 26.7067 30.7323 26.8708 30.5956L26.9639 30.518L26.2629 30.0232C26.0891 29.9005 25.9063 29.7912 25.716 29.696L25.6772 29.6766C25.3685 29.5223 25.0324 29.4302 24.6882 29.4056C24.5086 29.3927 24.3281 29.4061 24.1523 29.4451L23.9081 29.4994Z" fill="url(#paint24_linear_31570_6413)"/>
<path d="M31.4403 27.807L31.5479 27.6321C31.1741 27.3705 30.7534 27.1833 30.3089 27.0807L30.1889 27.053C29.7382 26.949 29.2771 26.8965 28.8146 26.8965H28.6897C28.3716 26.8965 28.0558 26.9502 27.7555 27.0552C27.311 27.2108 26.9143 27.4789 26.6042 27.8334L26.2851 28.198C26.4729 28.461 26.6944 28.6982 26.9438 28.9036L27.1276 29.055C27.3916 29.2724 27.7063 29.4194 28.0424 29.4825C28.3025 29.5312 28.5691 29.5351 28.8305 29.4938L29.004 29.4664C29.3398 29.4134 29.6654 29.309 29.9694 29.157L29.9907 29.1464C30.1983 29.0426 30.3949 28.918 30.5774 28.7746C30.9198 28.5055 31.212 28.1779 31.4403 27.807Z" fill="url(#paint25_linear_31570_6413)"/>
<path d="M24.9183 28.5016L24.8337 28.5407C24.5967 28.6501 24.3388 28.7067 24.0779 28.7067L23.9425 28.4089C23.8445 28.1934 23.7752 27.966 23.7363 27.7325C23.7002 27.5156 23.6976 27.2944 23.7287 27.0767L23.7482 26.9397C23.7791 26.7237 23.8493 26.5151 23.9552 26.3244L23.9648 26.3072C24.04 26.1718 24.127 26.0432 24.2247 25.9229L24.4289 25.6716C24.6831 25.3587 24.9931 25.0956 25.3431 24.8956C25.5167 24.7964 25.7071 24.7299 25.9048 24.6995L26.3414 24.6323L26.2283 26.1036L26.1603 26.6816C26.1303 26.9363 26.0638 27.1853 25.9628 27.4211L25.9491 27.453C25.8347 27.7197 25.6638 27.9584 25.4481 28.1526C25.29 28.2948 25.1114 28.4125 24.9183 28.5016Z" fill="url(#paint26_linear_31570_6413)"/>
<path d="M30.2403 24.7768L30.1332 25.3121L30.1963 25.4593C30.2648 25.6191 30.3921 25.7464 30.5519 25.8149C30.9077 25.9674 31.2977 26.0224 31.6818 25.9744L31.7199 25.9697C31.9064 25.9463 32.0896 25.9012 32.2656 25.8352L32.5325 25.7351C32.7801 25.6423 33.0123 25.5124 33.2211 25.35C33.3503 25.2495 33.4687 25.1359 33.5744 25.011L33.7768 24.7718C33.9502 24.5668 34.0986 24.3419 34.2186 24.1017C34.3615 23.8161 34.4622 23.5113 34.5177 23.1968L34.6038 22.709L33.5852 22.7656L32.9836 22.8229C32.5945 22.8599 32.2131 22.9544 31.8518 23.1032L31.8008 23.1242C31.5579 23.2242 31.33 23.3572 31.1235 23.5194L30.91 23.6872C30.7332 23.8261 30.5832 23.9962 30.4675 24.189C30.3587 24.3705 30.2818 24.5693 30.2403 24.7768Z" fill="url(#paint27_linear_31570_6413)"/>
<path d="M23.6247 29.8958L23.2851 29.7261L23.1719 29.8393L23.3983 30.009L23.6908 30.1796C23.9477 30.3295 24.2209 30.4493 24.5051 30.5368C24.7098 30.5997 24.9207 30.6398 25.1342 30.6562L25.3091 30.6697C25.4685 30.6819 25.6286 30.6792 25.7875 30.6615C25.9659 30.6417 26.1384 30.5855 26.2943 30.4965L26.4541 30.4051L26.3583 30.4211C26.1961 30.4481 26.0319 30.4617 25.8674 30.4617C25.5424 30.4617 25.218 30.4325 24.8983 30.3743L24.7564 30.3486C24.3799 30.2356 24.0137 30.0904 23.6621 29.9146L23.6247 29.8958Z" fill="#DE7E32"/>
<path d="M26.9645 28.2544L26.4552 28.1978L26.3421 28.1412L26.0591 28.4242L26.4552 28.4808L26.9645 28.5374L27.9831 28.594H28.4309C28.7354 28.594 29.0394 28.5673 29.3392 28.5144L29.3575 28.5112C29.6848 28.4534 30.0031 28.353 30.3043 28.2125C30.5666 28.09 30.812 27.9342 31.0344 27.7489L31.0389 27.7451L29.7374 28.1412L29.7219 28.1441C29.1299 28.2551 28.5289 28.311 27.9266 28.311L26.9645 28.2544Z" fill="#DE7E32"/>
<path d="M24.5309 27.8578L24.3612 28.7632L24.0216 28.8764C24.0216 28.6882 24.0391 28.5004 24.0738 28.3154L24.1914 27.688L24.1948 27.6728C24.2677 27.3447 24.3806 27.0267 24.5309 26.726L24.8705 26.1035L24.9846 25.9437C25.0969 25.7865 25.2221 25.6388 25.3587 25.5021L26.0022 24.8586L25.21 26.2167L24.8705 26.8392L24.6441 27.4051L24.5309 27.8578Z" fill="#DE7E32"/>
<path d="M30.3596 25.5942L29.341 25.8772L29.7937 25.3113C30.0951 25.236 30.3904 25.1381 30.6771 25.0186L31.6045 24.6322L32.0053 24.4319C32.4166 24.2262 32.8123 23.9905 33.189 23.7268L33.8681 23.2175L34.3208 22.9346L33.9828 23.3082C33.493 23.8495 32.9417 24.3318 32.3402 24.7454L32.0087 24.9112C31.4758 25.1776 30.9248 25.4059 30.3596 25.5942Z" fill="#DE7E32"/>
<defs>
<filter id="filter0_d_31570_6413" x="17.7069" y="0.0394956" width="4.87792" height="6.34923" filterUnits="userSpaceOnUse" color-interpolation-filters="sRGB">
<feFlood flood-opacity="0" result="BackgroundImageFix"/>
<feColorMatrix in="SourceAlpha" type="matrix" values="0 0 0 0 0 0 0 0 0 0 0 0 0 0 0 0 0 0 127 0" result="hardAlpha"/>
<feOffset dx="-0.226356"/>
<feGaussianBlur stdDeviation="0.130155"/>
<feComposite in2="hardAlpha" operator="out"/>
<feColorMatrix type="matrix" values="0 0 0 0 1 0 0 0 0 1 0 0 0 0 1 0 0 0 0.25 0"/>
<feBlend mode="normal" in2="BackgroundImageFix" result="effect1_dropShadow_31570_6413"/>
<feBlend mode="normal" in="SourceGraphic" in2="effect1_dropShadow_31570_6413" result="shape"/>
</filter>
<filter id="filter1_d_31570_6413" x="29.0461" y="11.7961" width="5.72741" height="6.35949" filterUnits="userSpaceOnUse" color-interpolation-filters="sRGB">
<feFlood flood-opacity="0" result="BackgroundImageFix"/>
<feColorMatrix in="SourceAlpha" type="matrix" values="0 0 0 0 0 0 0 0 0 0 0 0 0 0 0 0 0 0 127 0" result="hardAlpha"/>
<feOffset dy="-0.226356"/>
<feGaussianBlur stdDeviation="0.130155"/>
<feComposite in2="hardAlpha" operator="out"/>
<feColorMatrix type="matrix" values="0 0 0 0 1 0 0 0 0 1 0 0 0 0 1 0 0 0 0.25 0"/>
<feBlend mode="normal" in2="BackgroundImageFix" result="effect1_dropShadow_31570_6413"/>
<feBlend mode="normal" in="SourceGraphic" in2="effect1_dropShadow_31570_6413" result="shape"/>
</filter>
<filter id="filter2_d_31570_6413" x="1.54011" y="11.8322" width="5.72753" height="6.359" filterUnits="userSpaceOnUse" color-interpolation-filters="sRGB">
<feFlood flood-opacity="0" result="BackgroundImageFix"/>
<feColorMatrix in="SourceAlpha" type="matrix" values="0 0 0 0 0 0 0 0 0 0 0 0 0 0 0 0 0 0 127 0" result="hardAlpha"/>
<feOffset dy="-0.226356"/>
<feGaussianBlur stdDeviation="0.130155"/>
<feComposite in2="hardAlpha" operator="out"/>
<feColorMatrix type="matrix" values="0 0 0 0 1 0 0 0 0 1 0 0 0 0 1 0 0 0 0.25 0"/>
<feBlend mode="normal" in2="BackgroundImageFix" result="effect1_dropShadow_31570_6413"/>
<feBlend mode="normal" in="SourceGraphic" in2="effect1_dropShadow_31570_6413" result="shape"/>
</filter>
<filter id="filter3_d_31570_6413" x="8.73743" y="5.30844" width="2.88215" height="5.40266" filterUnits="userSpaceOnUse" color-interpolation-filters="sRGB">
<feFlood flood-opacity="0" result="BackgroundImageFix"/>
<feColorMatrix in="SourceAlpha" type="matrix" values="0 0 0 0 0 0 0 0 0 0 0 0 0 0 0 0 0 0 127 0" result="hardAlpha"/>
<feOffset dx="0.226356"/>
<feGaussianBlur stdDeviation="0.0735656"/>
<feComposite in2="hardAlpha" operator="out"/>
<feColorMatrix type="matrix" values="0 0 0 0 1 0 0 0 0 1 0 0 0 0 1 0 0 0 0.25 0"/>
<feBlend mode="normal" in2="BackgroundImageFix" result="effect1_dropShadow_31570_6413"/>
<feBlend mode="normal" in="SourceGraphic" in2="effect1_dropShadow_31570_6413" result="shape"/>
</filter>
<filter id="filter4_d_31570_6413" x="24.997" y="5.49203" width="3.1147" height="5.35334" filterUnits="userSpaceOnUse" color-interpolation-filters="sRGB">
<feFlood flood-opacity="0" result="BackgroundImageFix"/>
<feColorMatrix in="SourceAlpha" type="matrix" values="0 0 0 0 0 0 0 0 0 0 0 0 0 0 0 0 0 0 127 0" result="hardAlpha"/>
<feOffset dx="-0.226356"/>
<feGaussianBlur stdDeviation="0.0735656"/>
<feComposite in2="hardAlpha" operator="out"/>
<feColorMatrix type="matrix" values="0 0 0 0 1 0 0 0 0 1 0 0 0 0 1 0 0 0 0.25 0"/>
<feBlend mode="normal" in2="BackgroundImageFix" result="effect1_dropShadow_31570_6413"/>
<feBlend mode="normal" in="SourceGraphic" in2="effect1_dropShadow_31570_6413" result="shape"/>
</filter>
<filter id="filter5_d_31570_6413" x="17.8201" y="28.4487" width="4.65184" height="5.10411" filterUnits="userSpaceOnUse" color-interpolation-filters="sRGB">
<feFlood flood-opacity="0" result="BackgroundImageFix"/>
<feColorMatrix in="SourceAlpha" type="matrix" values="0 0 0 0 0 0 0 0 0 0 0 0 0 0 0 0 0 0 127 0" result="hardAlpha"/>
<feOffset dx="-0.113178"/>
<feGaussianBlur stdDeviation="0.130155"/>
<feComposite in2="hardAlpha" operator="out"/>
<feColorMatrix type="matrix" values="0 0 0 0 1 0 0 0 0 1 0 0 0 0 1 0 0 0 0.12 0"/>
<feBlend mode="normal" in2="BackgroundImageFix" result="effect1_dropShadow_31570_6413"/>
<feBlend mode="normal" in="SourceGraphic" in2="effect1_dropShadow_31570_6413" result="shape"/>
</filter>
<filter id="filter6_i_31570_6413" x="6.19653" y="5.39307" width="23.9937" height="23.9937" filterUnits="userSpaceOnUse" color-interpolation-filters="sRGB">
<feFlood flood-opacity="0" result="BackgroundImageFix"/>
<feBlend mode="normal" in="SourceGraphic" in2="BackgroundImageFix" result="shape"/>
<feColorMatrix in="SourceAlpha" type="matrix" values="0 0 0 0 0 0 0 0 0 0 0 0 0 0 0 0 0 0 127 0" result="hardAlpha"/>
<feMorphology radius="0.113178" operator="erode" in="SourceAlpha" result="effect1_innerShadow_31570_6413"/>
<feOffset/>
<feGaussianBlur stdDeviation="0.390464"/>
<feComposite in2="hardAlpha" operator="arithmetic" k2="-1" k3="1"/>
<feColorMatrix type="matrix" values="0 0 0 0 0 0 0 0 0 0 0 0 0 0 0 0 0 0 0.25 0"/>
<feBlend mode="normal" in2="shape" result="effect1_innerShadow_31570_6413"/>
</filter>
<filter id="filter7_ii_31570_6413" x="7.328" y="6.52539" width="21.7301" height="21.73" filterUnits="userSpaceOnUse" color-interpolation-filters="sRGB">
<feFlood flood-opacity="0" result="BackgroundImageFix"/>
<feBlend mode="normal" in="SourceGraphic" in2="BackgroundImageFix" result="shape"/>
<feColorMatrix in="SourceAlpha" type="matrix" values="0 0 0 0 0 0 0 0 0 0 0 0 0 0 0 0 0 0 127 0" result="hardAlpha"/>
<feMorphology radius="0.226356" operator="erode" in="SourceAlpha" result="effect1_innerShadow_31570_6413"/>
<feOffset/>
<feGaussianBlur stdDeviation="0.520618"/>
<feComposite in2="hardAlpha" operator="arithmetic" k2="-1" k3="1"/>
<feColorMatrix type="matrix" values="0 0 0 0 1 0 0 0 0 1 0 0 0 0 1 0 0 0 0.25 0"/>
<feBlend mode="normal" in2="shape" result="effect1_innerShadow_31570_6413"/>
<feColorMatrix in="SourceAlpha" type="matrix" values="0 0 0 0 0 0 0 0 0 0 0 0 0 0 0 0 0 0 127 0" result="hardAlpha"/>
<feMorphology radius="0.113178" operator="erode" in="SourceAlpha" result="effect2_innerShadow_31570_6413"/>
<feOffset/>
<feGaussianBlur stdDeviation="1.25062"/>
<feComposite in2="hardAlpha" operator="arithmetic" k2="-1" k3="1"/>
<feColorMatrix type="matrix" values="0 0 0 0 0 0 0 0 0 0 0 0 0 0 0 0 0 0 0.25 0"/>
<feBlend mode="normal" in2="effect1_innerShadow_31570_6413" result="effect2_innerShadow_31570_6413"/>
</filter>
<filter id="filter8_f_31570_6413" x="3.2578" y="3.20483" width="18.5401" height="19.8682" filterUnits="userSpaceOnUse" color-interpolation-filters="sRGB">
<feFlood flood-opacity="0" result="BackgroundImageFix"/>
<feBlend mode="normal" in="SourceGraphic" in2="BackgroundImageFix" result="shape"/>
<feGaussianBlur stdDeviation="2.80115" result="effect1_foregroundBlur_31570_6413"/>
</filter>
<linearGradient id="paint0_linear_31570_6413" x1="18.2213" y1="6.12842" x2="18.2213" y2="0.29976" gradientUnits="userSpaceOnUse">
<stop stop-color="#E3914D"/>
<stop offset="1" stop-color="#E38C46"/>
</linearGradient>
<linearGradient id="paint1_linear_31570_6413" x1="20.3723" y1="6.12842" x2="20.3723" y2="0.29976" gradientUnits="userSpaceOnUse">
<stop stop-color="#AB5212"/>
<stop offset="1" stop-color="#C55F15"/>
</linearGradient>
<linearGradient id="paint2_linear_31570_6413" x1="28.9346" y1="13.9724" x2="34.5211" y2="12.3097" gradientUnits="userSpaceOnUse">
<stop stop-color="#E3914D"/>
<stop offset="1" stop-color="#E38C46"/>
</linearGradient>
<linearGradient id="paint3_linear_31570_6413" x1="29.5483" y1="16.0335" x2="35.1347" y2="14.3707" gradientUnits="userSpaceOnUse">
<stop stop-color="#AB5212"/>
<stop offset="1" stop-color="#C55F15"/>
</linearGradient>
<linearGradient id="paint4_linear_31570_6413" x1="7.37946" y1="14.0081" x2="1.79285" y2="12.3458" gradientUnits="userSpaceOnUse">
<stop stop-color="#E3914D"/>
<stop offset="1" stop-color="#E38D46"/>
</linearGradient>
<linearGradient id="paint5_linear_31570_6413" x1="6.76565" y1="16.0691" x2="1.17904" y2="14.4068" gradientUnits="userSpaceOnUse">
<stop stop-color="#AB5212"/>
<stop offset="1" stop-color="#C55F15"/>
</linearGradient>
<linearGradient id="paint6_linear_31570_6413" x1="11.4139" y1="8.56448" x2="8.72226" y2="5.46815" gradientUnits="userSpaceOnUse">
<stop stop-color="#E3914D"/>
<stop offset="1" stop-color="#E38C46"/>
</linearGradient>
<linearGradient id="paint7_linear_31570_6413" x1="10.2717" y1="9.55782" x2="7.58014" y2="6.46149" gradientUnits="userSpaceOnUse">
<stop stop-color="#AB5212"/>
<stop offset="1" stop-color="#C55F15"/>
</linearGradient>
<linearGradient id="paint8_linear_31570_6413" x1="25.1846" y1="8.51514" x2="28.1256" y2="5.65467" gradientUnits="userSpaceOnUse">
<stop stop-color="#E3914D"/>
<stop offset="1" stop-color="#E38C46"/>
</linearGradient>
<linearGradient id="paint9_linear_31570_6413" x1="26.24" y1="9.59894" x2="29.181" y2="6.73846" gradientUnits="userSpaceOnUse">
<stop stop-color="#AB5212"/>
<stop offset="1" stop-color="#C55F15"/>
</linearGradient>
<linearGradient id="paint10_linear_31570_6413" x1="18.1934" y1="5.39307" x2="18.1934" y2="29.3868" gradientUnits="userSpaceOnUse">
<stop stop-color="#854102"/>
<stop offset="1" stop-color="#DF7714"/>
</linearGradient>
<linearGradient id="paint11_linear_31570_6413" x1="18.7724" y1="14.2082" x2="12.8868" y2="25.3964" gradientUnits="userSpaceOnUse">
<stop offset="0.168487" stop-color="#964603"/>
<stop offset="1" stop-color="#E5914F"/>
</linearGradient>
<linearGradient id="paint12_linear_31570_6413" x1="20.5339" y1="16.8021" x2="21.6339" y2="22.3554" gradientUnits="userSpaceOnUse">
<stop stop-color="#964603"/>
<stop offset="1" stop-color="#E5914F"/>
</linearGradient>
<linearGradient id="paint13_linear_31570_6413" x1="19.5791" y1="17.8168" x2="21.6195" y2="22.3411" gradientUnits="userSpaceOnUse">
<stop stop-color="#964603"/>
<stop offset="1" stop-color="#E5914F"/>
</linearGradient>
<linearGradient id="paint14_linear_31570_6413" x1="5.12109" y1="18.7477" x2="2.68776" y2="20.502" gradientUnits="userSpaceOnUse">
<stop stop-color="#E88D44"/>
<stop offset="1" stop-color="#9C4615"/>
</linearGradient>
<linearGradient id="paint15_linear_31570_6413" x1="8.68627" y1="22.9366" x2="7.04519" y2="25.087" gradientUnits="userSpaceOnUse">
<stop offset="0.0629129" stop-color="#E88D44"/>
<stop offset="1" stop-color="#9C4615"/>
</linearGradient>
<linearGradient id="paint16_linear_31570_6413" x1="3.81934" y1="17.9556" x2="23.0596" y2="30.9711" gradientUnits="userSpaceOnUse">
<stop offset="0.26" stop-color="#DE7E32"/>
<stop offset="1" stop-color="#B45A0E"/>
</linearGradient>
<linearGradient id="paint17_linear_31570_6413" x1="11.2044" y1="29.3862" x2="11.2044" y2="31.3103" gradientUnits="userSpaceOnUse">
<stop stop-color="#E88D44"/>
<stop offset="1" stop-color="#9C4615"/>
</linearGradient>
<linearGradient id="paint18_linear_31570_6413" x1="7.35624" y1="26.8965" x2="7.32794" y2="29.8957" gradientUnits="userSpaceOnUse">
<stop offset="0.103256" stop-color="#E88D44"/>
<stop offset="1" stop-color="#9C4615"/>
</linearGradient>
<linearGradient id="paint19_linear_31570_6413" x1="12.0246" y1="25.8207" x2="10.2137" y2="27.4618" gradientUnits="userSpaceOnUse">
<stop stop-color="#E88D44"/>
<stop offset="1" stop-color="#9C4615"/>
</linearGradient>
<linearGradient id="paint20_linear_31570_6413" x1="4.61108" y1="22.9924" x2="3.08318" y2="25.5955" gradientUnits="userSpaceOnUse">
<stop offset="0.0927423" stop-color="#E88D44"/>
<stop offset="1" stop-color="#9C4615"/>
</linearGradient>
<linearGradient id="paint21_linear_31570_6413" x1="31.2854" y1="18.4077" x2="33.5846" y2="20.5015" gradientUnits="userSpaceOnUse">
<stop stop-color="#E88D44"/>
<stop offset="1" stop-color="#9C4615"/>
</linearGradient>
<linearGradient id="paint22_linear_31570_6413" x1="27.5861" y1="22.9361" x2="29.2272" y2="25.0865" gradientUnits="userSpaceOnUse">
<stop offset="0.0629129" stop-color="#E88D44"/>
<stop offset="1" stop-color="#9C4615"/>
</linearGradient>
<linearGradient id="paint23_linear_31570_6413" x1="32.453" y1="17.9556" x2="13.2128" y2="30.9711" gradientUnits="userSpaceOnUse">
<stop offset="0.26" stop-color="#DE7E32"/>
<stop offset="1" stop-color="#B45A0E"/>
</linearGradient>
<linearGradient id="paint24_linear_31570_6413" x1="25.1247" y1="29.3862" x2="25.1247" y2="31.3103" gradientUnits="userSpaceOnUse">
<stop stop-color="#E88D44"/>
<stop offset="1" stop-color="#9C4615"/>
</linearGradient>
<linearGradient id="paint25_linear_31570_6413" x1="28.9165" y1="26.8965" x2="28.9448" y2="29.8957" gradientUnits="userSpaceOnUse">
<stop offset="0.103256" stop-color="#E88D44"/>
<stop offset="1" stop-color="#9C4615"/>
</linearGradient>
<linearGradient id="paint26_linear_31570_6413" x1="24.2476" y1="25.8207" x2="26.0585" y2="27.4618" gradientUnits="userSpaceOnUse">
<stop stop-color="#E88D44"/>
<stop offset="1" stop-color="#9C4615"/>
</linearGradient>
<linearGradient id="paint27_linear_31570_6413" x1="31.6611" y1="22.9919" x2="33.189" y2="25.595" gradientUnits="userSpaceOnUse">
<stop offset="0.0927423" stop-color="#E88D44"/>
<stop offset="1" stop-color="#9C4615"/>
</linearGradient>
</defs>
</svg>
