<svg width="42" height="40" viewBox="0 0 42 40" fill="none" xmlns="http://www.w3.org/2000/svg">
<path d="M26.0288 7.29102L20.9272 6.82723L15.8918 7.29102L20.9272 0.466806L26.0288 7.29102Z" fill="url(#paint0_linear_31570_6203)"/>
<g filter="url(#filter0_d_31570_6203)">
<path d="M26.0285 7.29102L20.9269 6.82723V0.466806L26.0285 7.29102Z" fill="url(#paint1_linear_31570_6203)"/>
</g>
<path d="M35.0814 21.3319L34.0706 16.31L32.1897 11.6162L40.1668 14.4956L35.0814 21.3319Z" fill="url(#paint2_linear_31570_6203)"/>
<g filter="url(#filter1_d_31570_6203)">
<path d="M35.0821 21.331L34.0713 16.3091L40.1675 14.4947L35.0821 21.331Z" fill="url(#paint3_linear_31570_6203)"/>
</g>
<path d="M6.82094 21.3744L7.83129 16.3525L9.71179 11.6587L1.735 14.5386L6.82094 21.3744Z" fill="url(#paint4_linear_31570_6203)"/>
<g filter="url(#filter2_d_31570_6203)">
<path d="M6.82076 21.373L7.83111 16.3511L1.73482 14.5372L6.82076 21.373Z" fill="url(#paint5_linear_31570_6203)"/>
</g>
<path d="M10.2979 12.4827L12.7937 9.88058L15.6827 7.80176L9.85658 6.50177L10.2979 12.4827Z" fill="url(#paint6_linear_31570_6203)"/>
<g filter="url(#filter3_d_31570_6203)">
<path d="M10.2977 12.4832L12.7935 9.88107L9.85636 6.50225L10.2977 12.4832Z" fill="url(#paint7_linear_31570_6203)"/>
</g>
<path d="M31.5992 12.6413L29.3293 9.83926L26.6239 7.52588L32.5387 6.71781L31.5992 12.6413Z" fill="url(#paint8_linear_31570_6203)"/>
<g filter="url(#filter4_d_31570_6203)">
<path d="M31.5989 12.6403L29.329 9.83831L32.5383 6.71686L31.5989 12.6403Z" fill="url(#paint9_linear_31570_6203)"/>
</g>
<path d="M25.7636 33.7266L20.9267 34.3891L16.1567 33.7266L20.9267 39.0932L25.7636 33.7266Z" fill="#F19E10"/>
<g filter="url(#filter5_d_31570_6203)">
<path d="M25.764 33.7266L20.9271 34.3891V39.0932L25.764 33.7266Z" fill="#C57718"/>
</g>
<g filter="url(#filter6_i_31570_6203)">
<circle cx="20.9277" cy="20.4751" r="14.0459" fill="url(#paint10_linear_31570_6203)"/>
</g>
<g filter="url(#filter7_ii_31570_6203)">
<circle cx="20.9273" cy="20.4753" r="12.7209" fill="#1D1407"/>
</g>
<g filter="url(#filter8_f_31570_6203)">
<ellipse cx="14.2953" cy="15.4972" rx="6.1098" ry="2.60942" transform="rotate(-51.8925 14.2953 15.4972)" fill="#F7E6C6"/>
</g>
<path d="M3.90346 25.2703L4.69488 25.71L5.15866 25.9087C5.3756 25.7352 5.54249 25.5071 5.64222 25.2478L5.67374 25.1658C5.77182 24.9108 5.84511 24.6469 5.89259 24.3779L5.92108 24.2164C5.9865 23.8457 5.9865 23.4664 5.92108 23.0957L5.905 23.0046C5.84933 22.6892 5.75633 22.3815 5.62794 22.088L5.35742 21.4697L5.16795 21.1618C4.94123 20.7934 4.68708 20.4426 4.40765 20.1123L4.09859 19.7471L3.81807 20.1211C3.47665 20.5763 3.19896 21.076 2.99272 21.6064L2.96115 21.6876C2.88039 21.8952 2.81909 22.1099 2.77803 22.3289L2.74838 22.487C2.67737 22.8658 2.6753 23.2542 2.74226 23.6337C2.80631 23.9966 2.9571 24.3387 3.18179 24.6308L3.2225 24.6837C3.40708 24.9236 3.63882 25.1233 3.90346 25.2703Z" fill="url(#paint11_linear_31570_6203)"/>
<path d="M8.8917 30.3394L9.12706 30.4464C9.17517 30.4682 9.22741 30.4796 9.28026 30.4796H9.29532C9.44762 30.4796 9.5949 30.4251 9.71054 30.326L9.88305 30.1781C9.95702 30.1147 10.0176 30.0371 10.0611 29.95L10.0757 29.9209C10.2406 29.5912 10.3264 29.2275 10.3264 28.8589V28.7318C10.3264 28.2255 10.2085 27.7261 9.98207 27.2732C9.85886 27.0268 9.70191 26.7988 9.51575 26.5957L9.26582 26.3231C9.13401 26.1793 8.98754 26.0496 8.8288 25.9362L8.60635 25.7773C8.29688 25.5563 7.9588 25.3783 7.60139 25.2484L7.4112 25.1792L7.33307 26.234C7.29687 26.7226 7.30001 27.2133 7.34246 27.7014L7.36 27.9032C7.39391 28.2932 7.48978 28.6753 7.64399 29.0351C7.75305 29.2896 7.90379 29.5241 8.09002 29.7289L8.16061 29.8066C8.36556 30.032 8.61432 30.2133 8.8917 30.3394Z" fill="url(#paint12_linear_31570_6203)"/>
<path d="M4.36365 22.594L4.09863 21.2026L4.2048 23.2197C4.22229 23.5522 4.28015 23.8813 4.37709 24.1999L4.69492 25.2442L4.96069 25.9529C5.18058 26.5393 5.45332 27.1044 5.77552 27.6414L6.48379 28.8219L7.54387 30.2132L7.56658 30.236C8.12487 30.7942 8.72396 31.3102 9.35888 31.7795L11.4529 33.3272L12.0912 33.7158C12.6805 34.0744 13.2994 34.3819 13.9412 34.6347L15.1631 35.1161L15.6041 35.2847C16.808 35.745 18.0604 36.0663 19.3372 36.2424L21.4573 36.3749L23.1933 36.2994C24.0655 36.2615 24.9318 36.1357 25.7788 35.924L26.6252 35.7124L24.505 35.8449H22.1861L20.7285 35.7124L19.1384 35.4473L17.9458 35.1823L16.5545 34.7848L15.4281 34.4535L14.3681 34.056L13.8573 33.8757C13.4479 33.7312 13.0533 33.5476 12.6791 33.3275C12.3038 33.1067 11.9448 32.8594 11.6047 32.5874L11.4529 32.4659L10.5916 31.8034L9.66401 31.0746L9.59775 30.147L9.46524 29.2857L9.26648 28.4244L9.1153 27.8952C9.03952 27.63 8.94341 27.371 8.82782 27.1206C8.67925 26.7987 8.48785 26.4983 8.25883 26.2277L7.87514 25.7742L8.27266 26.5692L8.79727 28.0954C8.93316 28.4907 9.036 28.8966 9.10473 29.309L9.12001 29.4007C9.1733 29.7204 9.18856 30.0453 9.16546 30.3687L9.13397 30.8095L8.59313 30.4278C8.20613 30.1546 7.87288 29.8123 7.61012 29.4182L6.74881 28.0268L5.48998 25.7742L5.15081 24.9828C4.84737 24.2748 4.60106 23.5436 4.41423 22.7963L4.36365 22.594Z" fill="url(#paint13_linear_31570_6203)"/>
<path d="M14.1692 34.6545L14.898 34.9195L14.8748 35.105C14.8465 35.331 14.7614 35.5462 14.6275 35.7304L14.5039 35.9003C14.37 36.0845 14.2072 36.2458 14.0219 36.3781C13.9 36.4652 13.7649 36.5321 13.6217 36.5761L13.5246 36.606C13.1625 36.7174 12.7826 36.7597 12.4049 36.7306L12.3515 36.7265C12.1944 36.7145 12.039 36.6866 11.8875 36.6433C11.7309 36.5985 11.5807 36.5334 11.441 36.4496L11.311 36.3716C11.0966 36.2429 10.8925 36.0979 10.7004 35.9379L10.5914 35.8471L11.4121 35.2678C11.6156 35.1241 11.8296 34.9961 12.0524 34.8847L12.0979 34.8619C12.4593 34.6812 12.8528 34.5734 13.2558 34.5446C13.4661 34.5296 13.6774 34.5452 13.8832 34.5909L14.1692 34.6545Z" fill="url(#paint14_linear_31570_6203)"/>
<path d="M5.28454 32.671L5.15857 32.4663C5.59617 32.16 6.08866 31.9408 6.60914 31.8207L6.74968 31.7882C7.27734 31.6665 7.81712 31.605 8.35865 31.605H8.50492C8.87736 31.605 9.24713 31.6678 9.59865 31.7909C10.1191 31.973 10.5835 32.2869 10.9466 32.7019L11.3202 33.1288C11.1003 33.4367 10.8411 33.7144 10.549 33.9549L10.3338 34.1322C10.0247 34.3867 9.65626 34.5589 9.26273 34.6327C8.95821 34.6898 8.64615 34.6942 8.34011 34.6459L8.13691 34.6138C7.74379 34.5518 7.36257 34.4296 7.0066 34.2516L6.98168 34.2392C6.73863 34.1176 6.50851 33.9718 6.29483 33.8039C5.89385 33.4889 5.55181 33.1053 5.28454 32.671Z" fill="url(#paint15_linear_31570_6203)"/>
<path d="M12.9198 33.4863L13.019 33.532C13.2964 33.6601 13.5983 33.7264 13.9038 33.7264L14.0623 33.3777C14.177 33.1254 14.2582 32.8591 14.3038 32.5857C14.3461 32.3318 14.3491 32.0728 14.3127 31.8179L14.2898 31.6575C14.2536 31.4046 14.1715 31.1605 14.0474 30.9371L14.0363 30.917C13.9482 30.7584 13.8463 30.6079 13.7319 30.467L13.4928 30.1728C13.1952 29.8065 12.8323 29.4985 12.4225 29.2643C12.2192 29.1481 11.9963 29.0703 11.7649 29.0347L11.2537 28.9561L11.3862 30.6787L11.4658 31.3554C11.5009 31.6536 11.5787 31.9451 11.697 32.2211L11.7131 32.2585C11.8469 32.5708 12.047 32.8503 12.2995 33.0776C12.4846 33.2441 12.6937 33.3819 12.9198 33.4863Z" fill="url(#paint16_linear_31570_6203)"/>
<path d="M6.68933 29.1237L6.81467 29.7503L6.7408 29.9227C6.66063 30.1098 6.51156 30.2588 6.32448 30.339C5.9079 30.5176 5.45132 30.582 5.00159 30.5258L4.95701 30.5202C4.73861 30.4929 4.52416 30.4401 4.31807 30.3628L4.00563 30.2457C3.71568 30.1369 3.44387 29.9849 3.19943 29.7948C3.04816 29.6771 2.90951 29.5441 2.78573 29.3978L2.54881 29.1178C2.34574 28.8778 2.17206 28.6144 2.03147 28.3332C1.86426 27.9988 1.74633 27.642 1.68135 27.2737L1.58057 26.7026L2.77315 26.7689L3.47749 26.836C3.93298 26.8794 4.37953 26.9899 4.80262 27.1642L4.86229 27.1887C5.14662 27.3058 5.41344 27.4615 5.65523 27.6515L5.90523 27.8479C6.11225 28.0106 6.28782 28.2097 6.42328 28.4355C6.55075 28.6479 6.64074 28.8807 6.68933 29.1237Z" fill="url(#paint17_linear_31570_6203)"/>
<path d="M14.3679 35.183L14.898 34.918L14.9642 35.0505L14.6992 35.2492L14.3568 35.449C14.056 35.6244 13.7361 35.7647 13.4033 35.8671C13.1637 35.9408 12.9167 35.9877 12.6668 36.007L12.462 36.0227C12.2754 36.0371 12.0879 36.0339 11.9019 36.0132C11.693 35.99 11.4911 35.9242 11.3086 35.82L11.1215 35.713L11.2336 35.7317C11.4235 35.7634 11.6158 35.7793 11.8083 35.7793C12.1889 35.7793 12.5686 35.745 12.943 35.677L13.1091 35.6468L13.7716 35.448L14.3679 35.183Z" fill="#F7BE53"/>
<path d="M10.5252 33.1964L11.254 33.0639L11.3203 33.1964L11.5853 33.3952L11.1215 33.4614L10.5252 33.5277L9.33262 33.5939H8.80835C8.45183 33.5939 8.096 33.5628 7.74491 33.5008L7.72351 33.497C7.34031 33.4294 6.96763 33.3118 6.61502 33.1473C6.3079 33.0039 6.02059 32.8215 5.76023 32.6046L5.75488 32.6001L7.27874 33.0639L7.29689 33.0673C7.99001 33.1972 8.69368 33.2626 9.39888 33.2626L10.5252 33.1964Z" fill="#F7BE53"/>
<path d="M13.3744 32.7324L13.5731 33.7925L13.9707 33.925C13.9707 33.7046 13.9502 33.4847 13.9096 33.2681L13.7719 32.5336L13.7679 32.5158C13.6826 32.1316 13.5504 31.7593 13.3744 31.4073L12.9768 30.6785L12.8432 30.4914C12.7117 30.3073 12.5652 30.1343 12.4052 29.9743L11.6518 29.2209L12.5793 30.811L12.9768 31.5398L13.2419 32.2024L13.3744 32.7324Z" fill="#F7BE53"/>
<path d="M6.55017 30.0822L7.74275 30.4135L7.21271 29.7509C6.85985 29.6627 6.5141 29.5482 6.17835 29.4083L5.09257 28.9559L4.62335 28.7213C4.14176 28.4805 3.67854 28.2046 3.23744 27.8958L2.44239 27.2995L1.91235 26.9683L2.30811 27.4057C2.88154 28.0395 3.52695 28.6042 4.23126 29.0884L4.61937 29.2825C5.24324 29.5944 5.88846 29.8617 6.55017 30.0822Z" fill="#F7BE53"/>
<path d="M37.8183 25.2703L37.0269 25.71L36.5631 25.9087C36.3462 25.7352 36.1793 25.5071 36.0796 25.2478L36.0481 25.1658C35.95 24.9108 35.8767 24.6469 35.8292 24.3779L35.8007 24.2164C35.7353 23.8457 35.7353 23.4664 35.8007 23.0957L35.8168 23.0046C35.8725 22.6892 35.9655 22.3815 36.0939 22.088L36.3644 21.4697L36.5539 21.1618C36.7806 20.7934 37.0347 20.4426 37.3141 20.1123L37.6232 19.7471L37.9037 20.1211C38.2452 20.5763 38.5228 21.076 38.7291 21.6064L38.7607 21.6876C38.8414 21.8952 38.9027 22.1099 38.9438 22.3289L38.9734 22.487C39.0444 22.8658 39.0465 23.2542 38.9795 23.6337C38.9155 23.9966 38.7647 24.3387 38.54 24.6308L38.4993 24.6837C38.3147 24.9236 38.083 25.1233 37.8183 25.2703Z" fill="url(#paint18_linear_31570_6203)"/>
<path d="M32.8296 30.3394L32.5943 30.4464C32.5461 30.4682 32.4939 30.4796 32.4411 30.4796H32.426C32.2737 30.4796 32.1264 30.4251 32.0108 30.326L31.8383 30.1781C31.7643 30.1147 31.7038 30.0371 31.6602 29.95L31.6456 29.9209C31.4808 29.5912 31.3949 29.2275 31.3949 28.8589V28.7318C31.3949 28.2255 31.5128 27.7261 31.7392 27.2732C31.8625 27.0268 32.0194 26.7988 32.2056 26.5957L32.4555 26.3231C32.5873 26.1793 32.7338 26.0496 32.8925 25.9362L33.115 25.7773C33.4244 25.5563 33.7625 25.3783 34.1199 25.2484L34.3101 25.1792L34.3882 26.234C34.4244 26.7226 34.4213 27.2133 34.3789 27.7014L34.3613 27.9032C34.3274 28.2932 34.2315 28.6753 34.0773 29.0351C33.9683 29.2896 33.8175 29.5241 33.6313 29.7289L33.5607 29.8066C33.3558 30.032 33.107 30.2133 32.8296 30.3394Z" fill="url(#paint19_linear_31570_6203)"/>
<path d="M37.3575 22.594L37.6226 21.2026L37.5164 23.2197C37.4989 23.5522 37.441 23.8813 37.3441 24.1999L37.0263 25.2442L36.7605 25.9529C36.5406 26.5393 36.2679 27.1044 35.9457 27.6414L35.2374 28.8219L34.1773 30.2132L34.1546 30.236C33.5963 30.7942 32.9972 31.3102 32.3623 31.7795L30.2683 33.3272L29.63 33.7158C29.0407 34.0744 28.4218 34.3819 27.78 34.6347L26.5581 35.1161L26.1171 35.2847C24.9132 35.745 23.6608 36.0663 22.384 36.2424L20.2639 36.3749L18.5279 36.2994C17.6556 36.2615 16.7894 36.1357 15.9424 35.924L15.096 35.7124L17.2162 35.8449H19.5351L20.9927 35.7124L22.5828 35.4473L23.7754 35.1823L25.1667 34.7848L26.293 34.4535L27.3531 34.056L27.8639 33.8757C28.2733 33.7312 28.6679 33.5476 29.0421 33.3275C29.4174 33.1067 29.7764 32.8594 30.1165 32.5874L30.2683 32.4659L31.1296 31.8034L32.0572 31.0746L32.1234 30.147L32.2559 29.2857L32.4547 28.4244L32.6059 27.8952C32.6817 27.63 32.7778 27.371 32.8934 27.1206C33.0419 26.7987 33.2333 26.4983 33.4624 26.2277L33.8461 25.7742L33.4485 26.5692L32.9239 28.0954C32.788 28.4907 32.6852 28.8966 32.6165 29.309L32.6012 29.4007C32.5479 29.7204 32.5326 30.0453 32.5557 30.3687L32.5872 30.8095L33.1281 30.4278C33.5151 30.1546 33.8483 29.8123 34.1111 29.4182L34.9724 28.0268L36.2312 25.7742L36.5704 24.9828C36.8738 24.2748 37.1201 23.5436 37.307 22.7963L37.3575 22.594Z" fill="url(#paint20_linear_31570_6203)"/>
<path d="M27.6183 34.6545L26.8895 34.9195L26.9127 35.105C26.9409 35.331 27.026 35.5462 27.16 35.7304L27.2836 35.9003C27.4175 36.0845 27.5803 36.2458 27.7655 36.3781C27.8874 36.4652 28.0226 36.5321 28.1657 36.5761L28.2628 36.606C28.625 36.7174 29.0048 36.7597 29.3826 36.7306L29.436 36.7265C29.5931 36.7145 29.7485 36.6866 29.8999 36.6433C30.0566 36.5985 30.2067 36.5334 30.3465 36.4496L30.4764 36.3716C30.6908 36.2429 30.895 36.0979 31.0871 35.9379L31.196 35.8471L30.3754 35.2678C30.1719 35.1241 29.9578 34.9961 29.7351 34.8847L29.6896 34.8619C29.3282 34.6812 28.9347 34.5734 28.5317 34.5446C28.3214 34.5296 28.1101 34.5452 27.9043 34.5909L27.6183 34.6545Z" fill="url(#paint21_linear_31570_6203)"/>
<path d="M36.4373 32.671L36.5632 32.4663C36.1256 32.16 35.6331 31.9408 35.1127 31.8207L34.9721 31.7882C34.4445 31.6665 33.9047 31.605 33.3631 31.605H33.2169C32.8444 31.605 32.4747 31.6678 32.1231 31.7909C31.6027 31.973 31.1383 32.2869 30.7752 32.7019L30.4016 33.1288C30.6215 33.4367 30.8807 33.7144 31.1728 33.9549L31.388 34.1322C31.6971 34.3867 32.0655 34.5589 32.4591 34.6327C32.7636 34.6898 33.0757 34.6942 33.3817 34.6459L33.5849 34.6138C33.978 34.5518 34.3592 34.4296 34.7152 34.2516L34.7401 34.2392C34.9832 34.1176 35.2133 33.9718 35.427 33.8039C35.828 33.4889 36.17 33.1053 36.4373 32.671Z" fill="url(#paint22_linear_31570_6203)"/>
<path d="M28.8015 33.4863L28.7023 33.532C28.4249 33.6601 28.123 33.7264 27.8175 33.7264L27.659 33.3777C27.5443 33.1254 27.4631 32.8591 27.4176 32.5857C27.3752 32.3318 27.3722 32.0728 27.4086 31.8179L27.4315 31.6575C27.4677 31.4046 27.5498 31.1605 27.6739 30.9371L27.6851 30.917C27.7732 30.7584 27.875 30.6079 27.9894 30.467L28.2285 30.1728C28.5261 29.8065 28.889 29.4985 29.2988 29.2643C29.5021 29.1481 29.725 29.0703 29.9565 29.0347L30.4677 28.9561L30.3351 30.6787L30.2555 31.3554C30.2204 31.6536 30.1426 31.9451 30.0243 32.2211L30.0083 32.2585C29.8744 32.5708 29.6743 32.8503 29.4218 33.0776C29.2367 33.2441 29.0276 33.3819 28.8015 33.4863Z" fill="url(#paint23_linear_31570_6203)"/>
<path d="M35.0319 29.1237L34.9065 29.7503L34.9804 29.9227C35.0606 30.1098 35.2096 30.2588 35.3967 30.339C35.8133 30.5176 36.2699 30.582 36.7196 30.5258L36.7642 30.5202C36.9826 30.4929 37.197 30.4401 37.4031 30.3628L37.7156 30.2457C38.0055 30.1369 38.2773 29.9849 38.5218 29.7948C38.673 29.6771 38.8117 29.5441 38.9355 29.3978L39.1724 29.1178C39.3755 28.8778 39.5491 28.6144 39.6897 28.3332C39.8569 27.9988 39.9749 27.642 40.0398 27.2737L40.1406 26.7026L38.948 26.7689L38.2437 26.836C37.7882 26.8794 37.3417 26.9899 36.9186 27.1642L36.8589 27.1887C36.5746 27.3058 36.3077 27.4615 36.066 27.6515L35.816 27.8479C35.6089 28.0106 35.4334 28.2097 35.2979 28.4355C35.1704 28.6479 35.0804 28.8807 35.0319 29.1237Z" fill="url(#paint24_linear_31570_6203)"/>
<path d="M27.2873 35.1167L26.8897 34.918L26.7572 35.0505L27.0222 35.2492L27.3647 35.449C27.6654 35.6244 27.9853 35.7647 28.3181 35.8671C28.5577 35.9408 28.8047 35.9877 29.0546 36.007L29.2594 36.0227C29.446 36.0371 29.6335 36.0339 29.8195 36.0132C30.0284 35.99 30.2303 35.9242 30.4128 35.82L30.6 35.713L30.4878 35.7317C30.2979 35.7634 30.1057 35.7793 29.9131 35.7793C29.5326 35.7793 29.1528 35.745 28.7784 35.677L28.6123 35.6468C28.1715 35.5145 27.7428 35.3445 27.3311 35.1387L27.2873 35.1167Z" fill="#F7BE53"/>
<path d="M31.1961 33.1964L30.5998 33.1301L30.4673 33.0639L30.136 33.3952L30.5998 33.4614L31.1961 33.5277L32.3887 33.5939H32.913C33.2695 33.5939 33.6253 33.5628 33.9764 33.5008L33.9978 33.497C34.381 33.4294 34.7537 33.3118 35.1063 33.1473C35.4134 33.0039 35.7007 32.8215 35.9611 32.6046L35.9664 32.6001L34.4426 33.0639L34.4244 33.0673C33.7313 33.1972 33.0276 33.2626 32.3224 33.2626L31.1961 33.1964Z" fill="#F7BE53"/>
<path d="M28.3478 32.7324L28.149 33.7925L27.7515 33.925C27.7515 33.7046 27.7719 33.4847 27.8126 33.2681L27.9503 32.5336L27.9542 32.5158C28.0396 32.1316 28.1718 31.7593 28.3478 31.4073L28.7453 30.6785L28.879 30.4914C29.0105 30.3073 29.157 30.1343 29.317 29.9743L30.0704 29.2209L29.1428 30.811L28.7453 31.5398L28.4803 32.2024L28.3478 32.7324Z" fill="#F7BE53"/>
<path d="M35.172 30.0822L33.9794 30.4135L34.5095 29.7509C34.8623 29.6627 35.2081 29.5482 35.5438 29.4083L36.6296 28.9559L37.0988 28.7213C37.5804 28.4805 38.0436 28.2046 38.4847 27.8958L39.2798 27.2995L39.8098 26.9683L39.4141 27.4057C38.8406 28.0395 38.1952 28.6042 37.4909 29.0884L37.1028 29.2825C36.4789 29.5944 35.8337 29.8617 35.172 30.0822Z" fill="#F7BE53"/>
<path d="M20.3711 14.2858C20.6594 13.7396 21.4639 13.8133 21.6481 14.4029L22.4351 16.921C22.727 17.8553 22.6879 18.8616 22.3244 19.7704L21.7969 21.0893C20.7772 23.6385 18.3082 25.3101 15.5625 25.3101C15.1041 25.3101 14.8101 24.8225 15.0241 24.4171L20.3711 14.2858Z" fill="url(#paint25_linear_31570_6203)"/>
<path d="M22.6536 19.7199C22.8439 19.2608 23.4748 19.2118 23.7338 19.636L26.6048 24.3381C26.8628 24.7605 26.5587 25.3024 26.0637 25.3024H25.2872C24.3936 25.3024 23.5619 24.8459 23.0821 24.092L22.4553 23.107C21.9976 22.3877 21.9195 21.4903 22.246 20.7027L22.6536 19.7199Z" fill="url(#paint26_linear_31570_6203)"/>
<path d="M21.304 22.6239C21.4436 22.3948 21.8074 22.4019 21.9196 22.6455C22.2278 23.3144 22.511 23.7978 22.8421 24.2934C23.1285 24.722 22.8331 25.3015 22.3176 25.3015H18.8303C18.6236 25.3015 18.5603 24.9686 18.7455 24.877C19.7332 24.3887 20.6712 23.6623 21.304 22.6239Z" fill="url(#paint27_linear_31570_6203)"/>
<defs>
<filter id="filter0_d_31570_6203" x="20.3571" y="0.162026" width="5.7111" height="7.43376" filterUnits="userSpaceOnUse" color-interpolation-filters="sRGB">
<feFlood flood-opacity="0" result="BackgroundImageFix"/>
<feColorMatrix in="SourceAlpha" type="matrix" values="0 0 0 0 0 0 0 0 0 0 0 0 0 0 0 0 0 0 127 0" result="hardAlpha"/>
<feOffset dx="-0.265018"/>
<feGaussianBlur stdDeviation="0.152385"/>
<feComposite in2="hardAlpha" operator="out"/>
<feColorMatrix type="matrix" values="0 0 0 0 1 0 0 0 0 1 0 0 0 0 1 0 0 0 0.25 0"/>
<feBlend mode="normal" in2="BackgroundImageFix" result="effect1_dropShadow_31570_6203"/>
<feBlend mode="normal" in="SourceGraphic" in2="effect1_dropShadow_31570_6203" result="shape"/>
</filter>
<filter id="filter1_d_31570_6203" x="33.7665" y="13.9248" width="6.70573" height="7.44597" filterUnits="userSpaceOnUse" color-interpolation-filters="sRGB">
<feFlood flood-opacity="0" result="BackgroundImageFix"/>
<feColorMatrix in="SourceAlpha" type="matrix" values="0 0 0 0 0 0 0 0 0 0 0 0 0 0 0 0 0 0 127 0" result="hardAlpha"/>
<feOffset dy="-0.265018"/>
<feGaussianBlur stdDeviation="0.152385"/>
<feComposite in2="hardAlpha" operator="out"/>
<feColorMatrix type="matrix" values="0 0 0 0 1 0 0 0 0 1 0 0 0 0 1 0 0 0 0.25 0"/>
<feBlend mode="normal" in2="BackgroundImageFix" result="effect1_dropShadow_31570_6203"/>
<feBlend mode="normal" in="SourceGraphic" in2="effect1_dropShadow_31570_6203" result="shape"/>
</filter>
<filter id="filter2_d_31570_6203" x="1.43009" y="13.9673" width="6.70573" height="7.44548" filterUnits="userSpaceOnUse" color-interpolation-filters="sRGB">
<feFlood flood-opacity="0" result="BackgroundImageFix"/>
<feColorMatrix in="SourceAlpha" type="matrix" values="0 0 0 0 0 0 0 0 0 0 0 0 0 0 0 0 0 0 127 0" result="hardAlpha"/>
<feOffset dy="-0.265018"/>
<feGaussianBlur stdDeviation="0.152385"/>
<feComposite in2="hardAlpha" operator="out"/>
<feColorMatrix type="matrix" values="0 0 0 0 1 0 0 0 0 1 0 0 0 0 1 0 0 0 0.25 0"/>
<feBlend mode="normal" in2="BackgroundImageFix" result="effect1_dropShadow_31570_6203"/>
<feBlend mode="normal" in="SourceGraphic" in2="effect1_dropShadow_31570_6203" result="shape"/>
</filter>
<filter id="filter3_d_31570_6203" x="9.85632" y="6.33018" width="3.37454" height="6.32548" filterUnits="userSpaceOnUse" color-interpolation-filters="sRGB">
<feFlood flood-opacity="0" result="BackgroundImageFix"/>
<feColorMatrix in="SourceAlpha" type="matrix" values="0 0 0 0 0 0 0 0 0 0 0 0 0 0 0 0 0 0 127 0" result="hardAlpha"/>
<feOffset dx="0.265018"/>
<feGaussianBlur stdDeviation="0.0861308"/>
<feComposite in2="hardAlpha" operator="out"/>
<feColorMatrix type="matrix" values="0 0 0 0 1 0 0 0 0 1 0 0 0 0 1 0 0 0 0.25 0"/>
<feBlend mode="normal" in2="BackgroundImageFix" result="effect1_dropShadow_31570_6203"/>
<feBlend mode="normal" in="SourceGraphic" in2="effect1_dropShadow_31570_6203" result="shape"/>
</filter>
<filter id="filter4_d_31570_6203" x="28.8917" y="6.54454" width="3.64663" height="6.26786" filterUnits="userSpaceOnUse" color-interpolation-filters="sRGB">
<feFlood flood-opacity="0" result="BackgroundImageFix"/>
<feColorMatrix in="SourceAlpha" type="matrix" values="0 0 0 0 0 0 0 0 0 0 0 0 0 0 0 0 0 0 127 0" result="hardAlpha"/>
<feOffset dx="-0.265018"/>
<feGaussianBlur stdDeviation="0.0861308"/>
<feComposite in2="hardAlpha" operator="out"/>
<feColorMatrix type="matrix" values="0 0 0 0 1 0 0 0 0 1 0 0 0 0 1 0 0 0 0.25 0"/>
<feBlend mode="normal" in2="BackgroundImageFix" result="effect1_dropShadow_31570_6203"/>
<feBlend mode="normal" in="SourceGraphic" in2="effect1_dropShadow_31570_6203" result="shape"/>
</filter>
<filter id="filter5_d_31570_6203" x="20.4898" y="33.4218" width="5.44646" height="5.97624" filterUnits="userSpaceOnUse" color-interpolation-filters="sRGB">
<feFlood flood-opacity="0" result="BackgroundImageFix"/>
<feColorMatrix in="SourceAlpha" type="matrix" values="0 0 0 0 0 0 0 0 0 0 0 0 0 0 0 0 0 0 127 0" result="hardAlpha"/>
<feOffset dx="-0.132509"/>
<feGaussianBlur stdDeviation="0.152385"/>
<feComposite in2="hardAlpha" operator="out"/>
<feColorMatrix type="matrix" values="0 0 0 0 1 0 0 0 0 1 0 0 0 0 1 0 0 0 0.12 0"/>
<feBlend mode="normal" in2="BackgroundImageFix" result="effect1_dropShadow_31570_6203"/>
<feBlend mode="normal" in="SourceGraphic" in2="effect1_dropShadow_31570_6203" result="shape"/>
</filter>
<filter id="filter6_i_31570_6203" x="6.88171" y="6.4292" width="28.0919" height="28.0918" filterUnits="userSpaceOnUse" color-interpolation-filters="sRGB">
<feFlood flood-opacity="0" result="BackgroundImageFix"/>
<feBlend mode="normal" in="SourceGraphic" in2="BackgroundImageFix" result="shape"/>
<feColorMatrix in="SourceAlpha" type="matrix" values="0 0 0 0 0 0 0 0 0 0 0 0 0 0 0 0 0 0 127 0" result="hardAlpha"/>
<feMorphology radius="0.132509" operator="erode" in="SourceAlpha" result="effect1_innerShadow_31570_6203"/>
<feOffset/>
<feGaussianBlur stdDeviation="0.457156"/>
<feComposite in2="hardAlpha" operator="arithmetic" k2="-1" k3="1"/>
<feColorMatrix type="matrix" values="0 0 0 0 0 0 0 0 0 0 0 0 0 0 0 0 0 0 0.25 0"/>
<feBlend mode="normal" in2="shape" result="effect1_innerShadow_31570_6203"/>
</filter>
<filter id="filter7_ii_31570_6203" x="8.20642" y="7.75439" width="25.4418" height="25.4419" filterUnits="userSpaceOnUse" color-interpolation-filters="sRGB">
<feFlood flood-opacity="0" result="BackgroundImageFix"/>
<feBlend mode="normal" in="SourceGraphic" in2="BackgroundImageFix" result="shape"/>
<feColorMatrix in="SourceAlpha" type="matrix" values="0 0 0 0 0 0 0 0 0 0 0 0 0 0 0 0 0 0 127 0" result="hardAlpha"/>
<feMorphology radius="0.265018" operator="erode" in="SourceAlpha" result="effect1_innerShadow_31570_6203"/>
<feOffset/>
<feGaussianBlur stdDeviation="0.609541"/>
<feComposite in2="hardAlpha" operator="arithmetic" k2="-1" k3="1"/>
<feColorMatrix type="matrix" values="0 0 0 0 1 0 0 0 0 1 0 0 0 0 1 0 0 0 0.25 0"/>
<feBlend mode="normal" in2="shape" result="effect1_innerShadow_31570_6203"/>
<feColorMatrix in="SourceAlpha" type="matrix" values="0 0 0 0 0 0 0 0 0 0 0 0 0 0 0 0 0 0 127 0" result="hardAlpha"/>
<feMorphology radius="0.132509" operator="erode" in="SourceAlpha" result="effect2_innerShadow_31570_6203"/>
<feOffset/>
<feGaussianBlur stdDeviation="1.46422"/>
<feComposite in2="hardAlpha" operator="arithmetic" k2="-1" k3="1"/>
<feColorMatrix type="matrix" values="0 0 0 0 0 0 0 0 0 0 0 0 0 0 0 0 0 0 0.25 0"/>
<feBlend mode="normal" in2="effect1_innerShadow_31570_6203" result="effect2_innerShadow_31570_6203"/>
</filter>
<filter id="filter8_f_31570_6203" x="3.44191" y="3.86659" width="21.7068" height="23.2615" filterUnits="userSpaceOnUse" color-interpolation-filters="sRGB">
<feFlood flood-opacity="0" result="BackgroundImageFix"/>
<feBlend mode="normal" in="SourceGraphic" in2="BackgroundImageFix" result="shape"/>
<feGaussianBlur stdDeviation="3.2796" result="effect1_foregroundBlur_31570_6203"/>
</filter>
<linearGradient id="paint0_linear_31570_6203" x1="20.9603" y1="7.29102" x2="20.9603" y2="0.466806" gradientUnits="userSpaceOnUse">
<stop stop-color="#F1AC51"/>
<stop offset="1" stop-color="#F7E056"/>
</linearGradient>
<linearGradient id="paint1_linear_31570_6203" x1="23.4777" y1="7.29102" x2="23.4777" y2="0.466806" gradientUnits="userSpaceOnUse">
<stop stop-color="#EC8E13"/>
<stop offset="1" stop-color="#FFC987"/>
</linearGradient>
<linearGradient id="paint2_linear_31570_6203" x1="33.6356" y1="16.4741" x2="40.1762" y2="14.5274" gradientUnits="userSpaceOnUse">
<stop stop-color="#F1AC51"/>
<stop offset="1" stop-color="#F7E056"/>
</linearGradient>
<linearGradient id="paint3_linear_31570_6203" x1="34.3545" y1="18.8862" x2="40.8951" y2="16.9395" gradientUnits="userSpaceOnUse">
<stop stop-color="#EC8E13"/>
<stop offset="1" stop-color="#FFC987"/>
</linearGradient>
<linearGradient id="paint4_linear_31570_6203" x1="8.26637" y1="16.5166" x2="1.72555" y2="14.5704" gradientUnits="userSpaceOnUse">
<stop stop-color="#F1AC51"/>
<stop offset="1" stop-color="#F7E056"/>
</linearGradient>
<linearGradient id="paint5_linear_31570_6203" x1="7.5482" y1="18.9282" x2="1.00739" y2="16.982" gradientUnits="userSpaceOnUse">
<stop stop-color="#EC8E13"/>
<stop offset="1" stop-color="#FFC987"/>
</linearGradient>
<linearGradient id="paint6_linear_31570_6203" x1="12.9903" y1="10.1423" x2="9.83898" y2="6.51706" gradientUnits="userSpaceOnUse">
<stop stop-color="#F1AC51"/>
<stop offset="1" stop-color="#F7E056"/>
</linearGradient>
<linearGradient id="paint7_linear_31570_6203" x1="11.6527" y1="11.3053" x2="8.50135" y2="7.68015" gradientUnits="userSpaceOnUse">
<stop stop-color="#EC8E13"/>
<stop offset="1" stop-color="#FFC987"/>
</linearGradient>
<linearGradient id="paint8_linear_31570_6203" x1="29.1116" y1="10.0836" x2="32.5549" y2="6.73453" gradientUnits="userSpaceOnUse">
<stop stop-color="#F1AC51"/>
<stop offset="1" stop-color="#F7E056"/>
</linearGradient>
<linearGradient id="paint9_linear_31570_6203" x1="30.3469" y1="11.3531" x2="33.7903" y2="8.00408" gradientUnits="userSpaceOnUse">
<stop stop-color="#EC8E13"/>
<stop offset="1" stop-color="#FFC987"/>
</linearGradient>
<linearGradient id="paint10_linear_31570_6203" x1="20.9277" y1="6.4292" x2="20.9277" y2="34.5211" gradientUnits="userSpaceOnUse">
<stop stop-color="#B37729"/>
<stop offset="1" stop-color="#FFAF29"/>
</linearGradient>
<linearGradient id="paint11_linear_31570_6203" x1="5.62244" y1="22.066" x2="2.7735" y2="24.1199" gradientUnits="userSpaceOnUse">
<stop stop-color="#FAD666"/>
<stop offset="1" stop-color="#EA8B1F"/>
</linearGradient>
<linearGradient id="paint12_linear_31570_6203" x1="9.79636" y1="26.9681" x2="7.87498" y2="29.4857" gradientUnits="userSpaceOnUse">
<stop offset="0.0629129" stop-color="#FAD666"/>
<stop offset="1" stop-color="#EA8B1F"/>
</linearGradient>
<linearGradient id="paint13_linear_31570_6203" x1="4.09863" y1="21.1364" x2="26.6252" y2="36.3749" gradientUnits="userSpaceOnUse">
<stop offset="0.26" stop-color="#F7BE53"/>
<stop offset="1" stop-color="#E17618"/>
</linearGradient>
<linearGradient id="paint14_linear_31570_6203" x1="12.7447" y1="34.522" x2="12.7447" y2="36.7746" gradientUnits="userSpaceOnUse">
<stop stop-color="#FAD666"/>
<stop offset="1" stop-color="#EA8B1F"/>
</linearGradient>
<linearGradient id="paint15_linear_31570_6203" x1="8.2394" y1="31.605" x2="8.20627" y2="35.1165" gradientUnits="userSpaceOnUse">
<stop offset="0.103256" stop-color="#FAD666"/>
<stop offset="1" stop-color="#EA8B1F"/>
</linearGradient>
<linearGradient id="paint16_linear_31570_6203" x1="13.7051" y1="30.3474" x2="11.5849" y2="32.2688" gradientUnits="userSpaceOnUse">
<stop stop-color="#FAD666"/>
<stop offset="1" stop-color="#EA8B1F"/>
</linearGradient>
<linearGradient id="paint17_linear_31570_6203" x1="5.0258" y1="27.0339" x2="3.23693" y2="30.0816" gradientUnits="userSpaceOnUse">
<stop offset="0.0927423" stop-color="#FAD666"/>
<stop offset="1" stop-color="#EA8B1F"/>
</linearGradient>
<linearGradient id="paint18_linear_31570_6203" x1="36.0994" y1="22.066" x2="38.9483" y2="24.1199" gradientUnits="userSpaceOnUse">
<stop stop-color="#FAD666"/>
<stop offset="1" stop-color="#EA8B1F"/>
</linearGradient>
<linearGradient id="paint19_linear_31570_6203" x1="31.925" y1="26.9681" x2="33.8463" y2="29.4857" gradientUnits="userSpaceOnUse">
<stop offset="0.0629129" stop-color="#FAD666"/>
<stop offset="1" stop-color="#EA8B1F"/>
</linearGradient>
<linearGradient id="paint20_linear_31570_6203" x1="37.6226" y1="21.1364" x2="15.096" y2="36.3749" gradientUnits="userSpaceOnUse">
<stop offset="0.26" stop-color="#F7BE53"/>
<stop offset="1" stop-color="#E17618"/>
</linearGradient>
<linearGradient id="paint21_linear_31570_6203" x1="29.0428" y1="34.522" x2="29.0428" y2="36.7746" gradientUnits="userSpaceOnUse">
<stop stop-color="#FAD666"/>
<stop offset="1" stop-color="#EA8B1F"/>
</linearGradient>
<linearGradient id="paint22_linear_31570_6203" x1="33.4824" y1="31.605" x2="33.5155" y2="35.1165" gradientUnits="userSpaceOnUse">
<stop offset="0.103256" stop-color="#FAD666"/>
<stop offset="1" stop-color="#EA8B1F"/>
</linearGradient>
<linearGradient id="paint23_linear_31570_6203" x1="28.0162" y1="30.3474" x2="30.1364" y2="32.2688" gradientUnits="userSpaceOnUse">
<stop stop-color="#FAD666"/>
<stop offset="1" stop-color="#EA8B1F"/>
</linearGradient>
<linearGradient id="paint24_linear_31570_6203" x1="36.6954" y1="27.0339" x2="38.4843" y2="30.0816" gradientUnits="userSpaceOnUse">
<stop offset="0.0927423" stop-color="#FAD666"/>
<stop offset="1" stop-color="#EA8B1F"/>
</linearGradient>
<linearGradient id="paint25_linear_31570_6203" x1="21.4193" y1="16.3671" x2="14.9763" y2="28.615" gradientUnits="userSpaceOnUse">
<stop offset="0.168487" stop-color="#C57718"/>
<stop offset="1" stop-color="#FABB6B"/>
</linearGradient>
<linearGradient id="paint26_linear_31570_6203" x1="23.3478" y1="19.2062" x2="24.5519" y2="25.2855" gradientUnits="userSpaceOnUse">
<stop stop-color="#C57718"/>
<stop offset="1" stop-color="#FABB6B"/>
</linearGradient>
<linearGradient id="paint27_linear_31570_6203" x1="22.3024" y1="20.3172" x2="24.5361" y2="25.27" gradientUnits="userSpaceOnUse">
<stop stop-color="#C57718"/>
<stop offset="1" stop-color="#FABB6B"/>
</linearGradient>
</defs>
</svg>
