<svg width="20" height="20" viewBox="0 0 20 20" fill="none" xmlns="http://www.w3.org/2000/svg">
  <path d="M10.0981 0L11.7824 3.36842L10.9504 2.82243C10.8944 2.78568 10.8199 2.82585 10.8199 2.89283V10.5263C10.9115 10.8974 11.0302 11.0615 11.5418 11.1579L12.1401 11.5L11.3012 13.0526L10.9735 19.97C10.5646 20.0023 10.5227 19.9952 10.0981 20V0Z" fill="#3D3122"/>
  <path d="M6.20773 4.21056C5.92487 3.34777 5.47932 2.67107 4.88653 1.89478V4.80697L5.32693 4.21056C5.55954 4.05641 5.81519 4.12205 5.76733 4.42109C5.63699 5.23542 5.57067 5.70453 5.32693 6.31583C5.10673 6.94741 4.66633 8.00004 4.66633 9.05267C4.66633 10.0121 4.95982 10.5198 5.45973 10.9933C6.06324 11.565 6.82044 11.9459 7.5927 12.2535L9.07031 12.8421L8.85011 11.7895L6.20773 10.5264L5.54713 9.2632C5.5955 8.2687 5.62971 7.71157 5.98753 6.73688C6.19568 5.66817 6.482 5.27934 6.20773 4.21056Z" fill="#3D3122"/>
  <path d="M10.0981 0L8.41393 3.39507L9.24567 2.84492C9.30165 2.80789 9.37634 2.84804 9.37634 2.91516V10.6096C9.28476 10.9836 9.16614 11.149 8.65454 11.2462L8.14014 11.5L8.89514 13.1559L9.1068 19.9533C9.5845 19.9986 9.6296 19.9959 10.0981 20V0Z" fill="#3D3122"/>
  <path d="M8.66386 11.1579C7.52173 11.1587 6.42747 10.5264 5.98708 9.89477C5.32648 8.63162 5.91897 8.00004 6.20727 6.73688C6.44831 5.68082 6.54273 4.94336 6.20727 4.00004C5.88785 3.10182 5.60761 2.64011 4.88609 1.89478C5.44384 2.68659 5.65853 3.15416 5.98708 4.00004C6.1314 4.414 6.18113 4.9184 6.13626 5.57253C6.08301 6.34893 5.77866 7.07647 5.46521 7.78878C5.44162 7.84237 5.41909 7.8953 5.39762 7.94774C4.92247 9.10849 5.72743 10.2902 6.7851 10.9644V10.9644C6.98717 11.0931 7.20033 11.2037 7.42205 11.2945L8.62946 11.7895H8.66386C9.25345 11.3486 9.4092 11.0772 9.38239 10.5264C9.2769 10.881 9.16162 11.0256 8.66386 11.1579Z" fill="#3D3122"/>
  <path d="M14.03 4.21056C14.313 3.34777 14.7586 2.67107 15.3516 1.89478V4.80697L14.9111 4.21056C14.6784 4.05641 14.4227 4.12205 14.4705 4.42109C14.6009 5.23542 14.6673 5.70453 14.9111 6.31583C15.1314 6.94741 15.5719 8.00004 15.5719 9.05267C15.5719 10.0124 15.2782 10.52 14.7779 10.9936C14.1744 11.5651 13.4173 11.9458 12.6451 12.2533L11.1665 12.8421L11.3868 11.7895L14.03 10.5264L14.6908 9.2632C14.6424 8.2687 14.6082 7.71157 14.2503 6.73688C14.0421 5.66817 13.7556 5.27934 14.03 4.21056Z" fill="#3D3122"/>
  <path d="M11.5735 11.1579C12.716 11.1587 13.8106 10.5264 14.2512 9.89477C14.912 8.63162 14.3193 8.00004 14.0309 6.73688C13.7898 5.68082 13.6953 4.94336 14.0309 4.00004C14.3504 3.10182 14.6307 2.64011 15.3525 1.89478C14.7946 2.68659 14.5798 3.15416 14.2512 4.00004C14.1068 4.41398 14.057 4.91835 14.1019 5.57242C14.1552 6.34889 14.4596 7.07648 14.7732 7.78882C14.7967 7.84223 14.8192 7.89498 14.8406 7.94725C15.3161 9.10822 14.5108 10.2902 13.4528 10.9644V10.9644C13.2507 11.0932 13.0375 11.2036 12.8158 11.2945L11.6079 11.7895H11.5735C10.9837 11.3486 10.7915 11.0772 10.8183 10.5264C10.9239 10.881 11.0756 11.0256 11.5735 11.1579Z" fill="#3D3122"/>
  </svg>
  