<svg width="14" height="19" viewBox="0 0 14 19" fill="none" xmlns="http://www.w3.org/2000/svg">
<g clip-path="url(#clip0_12255_10304)">
<path d="M6.89545 0L7.25475 2.87446C7.77291 4.26483 8.03025 5.0733 8.29675 6.68313L7.64999 5.82079C7.47035 5.64113 7.21883 5.78486 7.29068 6.0723L7.50627 12.3602C7.86558 13.51 10.1651 12.7195 11.4587 11.1745C11.6768 10.8109 11.806 10.6096 11.818 10.1684C11.818 9.8091 11.6383 9.62945 11.3868 9.95283L11.4227 8.37187L11.6742 6.75499L11.6112 6.60791C11.5859 6.54888 11.5196 6.51909 11.4587 6.5394L11.4227 5.28183L11.3868 4.16797C11.3514 3.66871 11.2816 3.39531 11.1353 2.91039L11.782 4.16797V5.20996C12.3341 6.25329 12.4201 6.7384 12.2851 7.4736L12.5006 7.43767C12.4175 7.84396 12.3554 8.05803 12.3569 8.4078C12.3528 8.62377 12.4447 8.66947 12.6444 8.62339L12.4288 9.05456C12.4075 9.43012 12.6444 9.59352 12.86 9.23421C13.1729 8.83355 13.2271 8.54139 13.1833 7.9407C13.4491 9.11334 13.3854 9.72973 12.6444 10.7074L12.824 10.8511L12.2132 11.2463C11.818 12.7554 10.1292 14.4442 7.36255 15.1628L7.36255 25.0078L6.89545 31.9213L6.46428 25.0078L6.42835 15.1628L5.45822 14.7676L5.17077 14.6598C2.58375 13.51 2.14239 12.5118 1.57769 11.1745L1.0028 10.8152L1.14652 10.7074C0.627243 9.76967 0.326679 9.24916 0.60756 7.86884C0.603272 8.47822 0.639824 8.81144 1.0028 9.342C1.18245 9.52166 1.50583 9.41387 1.3621 9.01863C1.30316 8.83808 1.23419 8.76082 1.11059 8.62339H1.39803C1.54176 8.33594 1.45346 7.87891 1.32617 7.40174H1.54176C1.43546 6.55222 1.54251 6.06467 2.04479 5.17403V4.47093C2.04479 4.22479 2.105 3.98238 2.22016 3.76485L2.69154 2.87446L2.44003 3.95239L2.4041 6.43161C2.15259 6.32934 2.10707 6.75768 2.15517 7.02489L2.4041 8.4078L2.4041 9.9169C2.12813 9.53924 1.86513 9.84504 2.00886 10.4918C2.58375 11.8572 3.76947 12.7554 5.31449 12.8632C6.24869 12.971 6.48797 12.4999 6.42835 10.9589L6.57207 6.0723C6.57207 5.82079 6.3217 5.66708 6.10497 5.89265C5.87525 6.06627 5.75124 6.28802 5.53007 6.68313C5.60194 5.38962 6.39241 3.95239 6.57207 2.87446L6.89545 0Z" fill="#FFFFD0"/>
</g>
<defs>
<clipPath id="clip0_12255_10304">
<rect width="13" height="19" fill="white" transform="translate(0.5)"/>
</clipPath>
</defs>
</svg>
