<svg width="16" height="16" viewBox="0 0 16 16" fill="none" xmlns="http://www.w3.org/2000/svg">
  <path d="M8.07812 0L9.42549 2.69474L8.7599 2.25794C8.7151 2.22854 8.65557 2.26068 8.65557 2.31426V8.42105C8.72883 8.71792 8.82373 8.84916 9.23301 8.92632L9.71172 9.2L9.04053 10.4421L8.77839 15.976C8.45127 16.0019 8.41779 15.9962 8.07812 16V0Z" fill="#FFFFD0"/>
  <path d="M4.96579 3.3685C4.73951 2.67826 4.38306 2.1369 3.90884 1.51587V3.84562L4.26115 3.3685C4.44724 3.24518 4.65176 3.29769 4.61347 3.53692C4.5092 4.18839 4.45614 4.56367 4.26115 5.05271C4.08499 5.55797 3.73268 6.40008 3.73268 7.24218C3.73268 8.00977 3.96747 8.4159 4.36739 8.79472C4.8502 9.25205 5.45596 9.55675 6.07377 9.80286L7.25586 10.2738L7.0797 9.43166L4.96579 8.42113L4.43731 7.41061C4.47601 6.61501 4.50337 6.1693 4.78963 5.38955C4.95616 4.53458 5.18521 4.22352 4.96579 3.3685Z" fill="#FFFFD0"/>
  <path d="M8.07812 0L6.73076 2.71605L7.39615 2.27594C7.44093 2.24631 7.50068 2.27843 7.50068 2.33213V8.48767C7.42742 8.78688 7.33252 8.91916 6.92324 8.99693L6.51172 9.2L7.11572 10.5247L7.28505 15.9627C7.66721 15.9989 7.70329 15.9967 8.07812 16V0Z" fill="#FFFFD0"/>
  <path d="M6.9307 8.92639C6.01699 8.92703 5.14159 8.42113 4.78927 7.91587C4.26079 6.90534 4.73478 6.40008 4.96543 5.38955C5.15826 4.5447 5.2338 3.95474 4.96543 3.20008C4.70989 2.4815 4.48569 2.11214 3.90848 1.51587C4.35468 2.14932 4.52643 2.52337 4.78927 3.20008C4.90473 3.53125 4.94452 3.93477 4.90862 4.45807C4.86602 5.07919 4.62253 5.66122 4.37178 6.23107C4.35291 6.27394 4.33488 6.31629 4.31771 6.35824C3.93758 7.28684 4.58155 8.23222 5.42769 8.77153C5.58934 8.87457 5.75988 8.96297 5.93725 9.03568L6.90317 9.43166H6.9307C7.40237 9.07892 7.52697 8.8618 7.50553 8.42113C7.42113 8.70484 7.3289 8.82055 6.9307 8.92639Z" fill="#FFFFD0"/>
  <path d="M11.2234 3.3685C11.4498 2.67826 11.8063 2.1369 12.2807 1.51587V3.84562L11.9283 3.3685C11.7421 3.24518 11.5375 3.29769 11.5759 3.53692C11.6802 4.18839 11.7332 4.56367 11.9283 5.05271C12.1045 5.55797 12.4569 6.40008 12.4569 7.24218C12.4569 8.00993 12.222 8.41608 11.8218 8.79496C11.3389 9.25209 10.7332 9.55669 10.1155 9.8027L8.93262 10.2738L9.10883 9.43166L11.2234 8.42113L11.7521 7.41061C11.7134 6.61501 11.686 6.1693 11.3996 5.38955C11.2331 4.53458 11.0039 4.22352 11.2234 3.3685Z" fill="#FFFFD0"/>
  <path d="M9.25841 8.92639C10.1724 8.92703 11.0481 8.42113 11.4005 7.91587C11.9292 6.90534 11.455 6.40008 11.2243 5.38955C11.0314 4.5447 10.9559 3.95474 11.2243 3.20008C11.4799 2.4815 11.7042 2.11214 12.2816 1.51587C11.8353 2.14932 11.6635 2.52337 11.4005 3.20008C11.285 3.53123 11.2452 3.93473 11.2811 4.45798C11.3237 5.07916 11.5673 5.66123 11.8182 6.2311C11.837 6.27383 11.855 6.31604 11.8721 6.35785C12.2525 7.28662 11.6083 8.23224 10.7618 8.77157C10.6002 8.87458 10.4296 8.96296 10.2523 9.03565L9.28595 9.43166H9.25841C8.78659 9.07892 8.63283 8.8618 8.65428 8.42113C8.7387 8.70484 8.86008 8.82055 9.25841 8.92639Z" fill="#FFFFD0"/>
  </svg>
  